<svg xmlns="http://www.w3.org/2000/svg" xmlns:xlink="http://www.w3.org/1999/xlink" contentStyleType="text/css" height="1185px" preserveAspectRatio="none" style="width:1940px;height:1185px;background:#FAFBFC;" version="1.1" viewBox="0 0 1940 1185" width="1940px" zoomAndPan="magnify"><defs/><g><rect fill="#FAFBFC" height="1185" style="stroke:none;stroke-width:1.0;" width="1940" x="0" y="0"/><!--class Calendar--><g id="elem_Calendar"><rect codeLine="23" fill="#ECFDF5" height="143.7813" id="Calendar" rx="6" ry="6" style="stroke:#10B981;stroke-width:0.5;" width="374.5605" x="867.17" y="41.92"/><ellipse cx="1020.2979" cy="56.92" fill="#ADD1B2" rx="10" ry="10" style="stroke:#181818;stroke-width:1.0;"/><path d="M1022.1573,61.1544 Q1021.7198,61.3731 1021.2198,61.4825 Q1020.7354,61.6075 1020.2042,61.6075 Q1018.2823,61.6075 1017.2667,60.3419 Q1016.2667,59.0763 1016.2667,56.6856 Q1016.2667,54.295 1017.2667,53.0294 Q1018.2823,51.7638 1020.2042,51.7638 Q1020.7354,51.7638 1021.2354,51.8888 Q1021.7354,51.9981 1022.1573,52.2325 L1022.1573,54.3106 Q1021.6729,53.8731 1021.2198,53.67 Q1020.7667,53.4513 1020.2823,53.4513 Q1019.2667,53.4513 1018.7354,54.2794 Q1018.2042,55.0919 1018.2042,56.6856 Q1018.2042,58.295 1018.7354,59.1075 Q1019.2667,59.92 1020.2823,59.92 Q1020.7667,59.92 1021.2198,59.7169 Q1021.6729,59.5138 1022.1573,59.0606 L1022.1573,61.1544 Z " fill="#000000"/><text fill="#334155" font-family="sans-serif" font-size="12" font-weight="bold" lengthAdjust="spacing" textLength="60.3047" x="1039.2979" y="61.0743">Calendar</text><line style="stroke:#10B981;stroke-width:0.5;" x1="868.17" x2="1240.7305" y1="71.92" y2="71.92"/><text fill="#334155" font-family="sans-serif" font-size="12" lengthAdjust="spacing" textLength="245.291" x="873.17" y="87.0587">-meetings : Map&lt;TimeInterval,Meeting&gt;</text><line style="stroke:#10B981;stroke-width:0.5;" x1="868.17" x2="1240.7305" y1="93.8888" y2="93.8888"/><text fill="#334155" font-family="sans-serif" font-size="12" lengthAdjust="spacing" textLength="229.3652" x="873.17" y="109.0274">+addMeeting(Meeting meeting) : void</text><text fill="#334155" font-family="sans-serif" font-size="12" lengthAdjust="spacing" textLength="252.6094" x="873.17" y="122.9962">+removeMeeting(Meeting meeting) : void</text><text fill="#334155" font-family="sans-serif" font-size="12" lengthAdjust="spacing" textLength="300.1289" x="873.17" y="136.9649">+getMeeting(TimeInterval timeInterval) : Meeting</text><text fill="#334155" font-family="sans-serif" font-size="12" lengthAdjust="spacing" textLength="194.8945" x="873.17" y="150.9337">+getMeetings() : List&lt;Meeting&gt;</text><text fill="#334155" font-family="sans-serif" font-size="12" lengthAdjust="spacing" textLength="362.5605" x="873.17" y="164.9024">+setMeetings(Map&lt;TimeInterval,Meeting&gt; meetings) : void</text><text fill="#334155" font-family="sans-serif" font-size="12" lengthAdjust="spacing" textLength="114.7617" x="873.17" y="178.8712">+toString() : String</text></g><!--class Demo--><g id="elem_Demo"><rect codeLine="33" fill="#ECFDF5" height="51.9688" id="Demo" rx="6" ry="6" style="stroke:#10B981;stroke-width:0.5;" width="173.6133" x="1759.64" y="87.83"/><ellipse cx="1823.0228" cy="102.83" fill="#ADD1B2" rx="10" ry="10" style="stroke:#181818;stroke-width:1.0;"/><path d="M1824.8822,107.0644 Q1824.4447,107.2831 1823.9447,107.3925 Q1823.4603,107.5175 1822.9291,107.5175 Q1821.0072,107.5175 1819.9916,106.2519 Q1818.9916,104.9863 1818.9916,102.5956 Q1818.9916,100.205 1819.9916,98.9394 Q1821.0072,97.6738 1822.9291,97.6738 Q1823.4603,97.6738 1823.9603,97.7988 Q1824.4603,97.9081 1824.8822,98.1425 L1824.8822,100.2206 Q1824.3978,99.7831 1823.9447,99.58 Q1823.4916,99.3613 1823.0072,99.3613 Q1821.9916,99.3613 1821.4603,100.1894 Q1820.9291,101.0019 1820.9291,102.5956 Q1820.9291,104.205 1821.4603,105.0175 Q1821.9916,105.83 1823.0072,105.83 Q1823.4916,105.83 1823.9447,105.6269 Q1824.3978,105.4238 1824.8822,104.9706 L1824.8822,107.0644 Z " fill="#000000"/><text fill="#334155" font-family="sans-serif" font-size="12" font-weight="bold" lengthAdjust="spacing" textLength="38.8477" x="1842.0228" y="106.9843">Demo</text><line style="stroke:#10B981;stroke-width:0.5;" x1="1760.64" x2="1932.2533" y1="117.83" y2="117.83"/><text fill="#334155" font-family="sans-serif" font-size="12" lengthAdjust="spacing" text-decoration="underline" textLength="161.6133" x="1765.64" y="132.9687">+main(String[] args) : void</text></g><!--class Meeting--><g id="elem_Meeting"><rect codeLine="37" fill="#ECFDF5" height="362.4141" id="Meeting" rx="6" ry="6" style="stroke:#10B981;stroke-width:0.5;" width="411.8145" x="848.54" y="290.62"/><ellipse cx="1021.02" cy="310.1708" fill="#ADD1B2" rx="10" ry="10" style="stroke:#181818;stroke-width:1.0;"/><path d="M1022.8794,314.4052 Q1022.4419,314.6239 1021.9419,314.7333 Q1021.4575,314.8583 1020.9262,314.8583 Q1019.0044,314.8583 1017.9887,313.5927 Q1016.9887,312.327 1016.9887,309.9364 Q1016.9887,307.5458 1017.9887,306.2802 Q1019.0044,305.0145 1020.9262,305.0145 Q1021.4575,305.0145 1021.9575,305.1395 Q1022.4575,305.2489 1022.8794,305.4833 L1022.8794,307.5614 Q1022.395,307.1239 1021.9419,306.9208 Q1021.4887,306.702 1021.0044,306.702 Q1019.9887,306.702 1019.4575,307.5302 Q1018.9262,308.3427 1018.9262,309.9364 Q1018.9262,311.5458 1019.4575,312.3583 Q1019.9887,313.1708 1021.0044,313.1708 Q1021.4887,313.1708 1021.9419,312.9677 Q1022.395,312.7645 1022.8794,312.3114 L1022.8794,314.4052 Z " fill="#000000"/><text fill="#6D28D9" font-family="sans-serif" font-size="13" font-style="italic" lengthAdjust="spacing" textLength="62.8545" x="1038.02" y="307.6869">&#171;Facade&#187;</text><text fill="#334155" font-family="sans-serif" font-size="12" font-weight="bold" lengthAdjust="spacing" textLength="55.2012" x="1041.8466" y="321.8915">Meeting</text><line style="stroke:#10B981;stroke-width:0.5;" x1="849.54" x2="1259.3545" y1="329.7216" y2="329.7216"/><text fill="#334155" font-family="sans-serif" font-size="12" lengthAdjust="spacing" textLength="112.6875" x="854.54" y="344.8602">-meetingId : String</text><text fill="#334155" font-family="sans-serif" font-size="12" lengthAdjust="spacing" textLength="95.3086" x="854.54" y="358.829">-subject : String</text><text fill="#334155" font-family="sans-serif" font-size="12" lengthAdjust="spacing" textLength="164.7598" x="854.54" y="372.7977">-timeInterval : TimeInterval</text><text fill="#334155" font-family="sans-serif" font-size="12" lengthAdjust="spacing" textLength="100.1543" x="854.54" y="386.7665">-organizer : User</text><text fill="#334155" font-family="sans-serif" font-size="12" lengthAdjust="spacing" textLength="183.5215" x="854.54" y="400.7352">-meetingRoom : MeetingRoom</text><text fill="#334155" font-family="sans-serif" font-size="12" lengthAdjust="spacing" textLength="275.9355" x="854.54" y="414.704">-attendees : Map&lt;User,ParticipantResponse&gt;</text><line style="stroke:#10B981;stroke-width:0.5;" x1="849.54" x2="1259.3545" y1="421.5341" y2="421.5341"/><text fill="#334155" font-family="sans-serif" font-size="12" lengthAdjust="spacing" textLength="146.1445" x="854.54" y="436.6727">+getMeetingId() : String</text><text fill="#334155" font-family="sans-serif" font-size="12" lengthAdjust="spacing" textLength="234.8613" x="854.54" y="450.6415">+setMeetingId(String meetingId) : void</text><text fill="#334155" font-family="sans-serif" font-size="12" lengthAdjust="spacing" textLength="131.4668" x="854.54" y="464.6102">+getSubject() : String</text><text fill="#334155" font-family="sans-serif" font-size="12" lengthAdjust="spacing" textLength="202.8047" x="854.54" y="478.579">+setSubject(String subject) : void</text><text fill="#334155" font-family="sans-serif" font-size="12" lengthAdjust="spacing" textLength="202.1777" x="854.54" y="492.5477">+getTimeInterval() : TimeInterval</text><text fill="#334155" font-family="sans-serif" font-size="12" lengthAdjust="spacing" textLength="303.0879" x="854.54" y="506.5165">+setTimeInterval(TimeInterval timeInterval) : void</text><text fill="#334155" font-family="sans-serif" font-size="12" lengthAdjust="spacing" textLength="137.0508" x="854.54" y="520.4852">+getOrganizer() : User</text><text fill="#334155" font-family="sans-serif" font-size="12" lengthAdjust="spacing" textLength="221.6953" x="854.54" y="534.454">+setOrganizer(User organizer) : void</text><text fill="#334155" font-family="sans-serif" font-size="12" lengthAdjust="spacing" textLength="216.9785" x="854.54" y="548.4227">+getMeetingRoom() : MeetingRoom</text><text fill="#334155" font-family="sans-serif" font-size="12" lengthAdjust="spacing" textLength="329.25" x="854.54" y="562.3915">+setMeetingRoom(MeetingRoom meetingRoom) : void</text><text fill="#334155" font-family="sans-serif" font-size="12" lengthAdjust="spacing" textLength="311.584" x="854.54" y="576.3602">+getAttendees() : Map&lt;User,ParticipantResponse&gt;</text><text fill="#334155" font-family="sans-serif" font-size="12" lengthAdjust="spacing" textLength="399.8145" x="854.54" y="590.329">+setAttendees(Map&lt;User,ParticipantResponse&gt; attendees) : void</text><text fill="#334155" font-family="sans-serif" font-size="12" lengthAdjust="spacing" textLength="246.3691" x="854.54" y="604.2977">+getAcceptedParticipants() : List&lt;User&gt;</text><text fill="#334155" font-family="sans-serif" font-size="12" lengthAdjust="spacing" textLength="242.7539" x="854.54" y="618.2665">+getDeclinedParticipants() : List&lt;User&gt;</text><text fill="#334155" font-family="sans-serif" font-size="12" lengthAdjust="spacing" textLength="247.1602" x="854.54" y="632.2352">+getTentativeParticipants() : List&lt;User&gt;</text><text fill="#334155" font-family="sans-serif" font-size="12" lengthAdjust="spacing" textLength="114.7617" x="854.54" y="646.204">+toString() : String</text></g><!--class MeetingRoom--><g id="elem_MeetingRoom"><rect codeLine="62" fill="#ECFDF5" height="269.5" id="MeetingRoom" rx="6" ry="6" style="stroke:#10B981;stroke-width:0.5;" width="430.4414" x="331.23" y="723.04"/><ellipse cx="495.7339" cy="738.04" fill="#ADD1B2" rx="10" ry="10" style="stroke:#181818;stroke-width:1.0;"/><path d="M497.5933,742.2744 Q497.1558,742.4931 496.6558,742.6025 Q496.1714,742.7275 495.6402,742.7275 Q493.7183,742.7275 492.7027,741.4619 Q491.7027,740.1963 491.7027,737.8056 Q491.7027,735.415 492.7027,734.1494 Q493.7183,732.8838 495.6402,732.8838 Q496.1714,732.8838 496.6714,733.0088 Q497.1714,733.1181 497.5933,733.3525 L497.5933,735.4306 Q497.1089,734.9931 496.6558,734.79 Q496.2027,734.5713 495.7183,734.5713 Q494.7027,734.5713 494.1714,735.3994 Q493.6402,736.2119 493.6402,737.8056 Q493.6402,739.415 494.1714,740.2275 Q494.7027,741.04 495.7183,741.04 Q496.2027,741.04 496.6558,740.8369 Q497.1089,740.6338 497.5933,740.1806 L497.5933,742.2744 Z " fill="#000000"/><text fill="#334155" font-family="sans-serif" font-size="12" font-weight="bold" lengthAdjust="spacing" textLength="93.4336" x="514.7339" y="742.1943">MeetingRoom</text><line style="stroke:#10B981;stroke-width:0.5;" x1="332.23" x2="760.6714" y1="753.04" y2="753.04"/><text fill="#334155" font-family="sans-serif" font-size="12" lengthAdjust="spacing" textLength="42.5977" x="337.23" y="768.1787">-id : int</text><text fill="#334155" font-family="sans-serif" font-size="12" lengthAdjust="spacing" textLength="85.8457" x="337.23" y="782.1474">-name : String</text><text fill="#334155" font-family="sans-serif" font-size="12" lengthAdjust="spacing" textLength="82.3066" x="337.23" y="796.1162">-capacity : int</text><text fill="#334155" font-family="sans-serif" font-size="12" lengthAdjust="spacing" textLength="206.2793" x="337.23" y="810.0849">-bookedSlots : List&lt;TimeInterval&gt;</text><text fill="#334155" font-family="sans-serif" font-size="12" lengthAdjust="spacing" textLength="122.1387" x="337.23" y="824.0537">-calendar : Calendar</text><line style="stroke:#10B981;stroke-width:0.5;" x1="332.23" x2="760.6714" y1="830.8838" y2="830.8838"/><text fill="#334155" font-family="sans-serif" font-size="12" lengthAdjust="spacing" textLength="138.0762" x="337.23" y="846.0224">+viewCalendar() : void</text><text fill="#334155" font-family="sans-serif" font-size="12" lengthAdjust="spacing" textLength="77.5957" x="337.23" y="859.9912">+getId() : int</text><text fill="#334155" font-family="sans-serif" font-size="12" lengthAdjust="spacing" textLength="118.8809" x="337.23" y="873.9599">+getCapacity() : int</text><text fill="#334155" font-family="sans-serif" font-size="12" lengthAdjust="spacing" textLength="158.7129" x="337.23" y="887.9287">+getCalendar() : Calendar</text><text fill="#334155" font-family="sans-serif" font-size="12" lengthAdjust="spacing" textLength="238.7344" x="337.23" y="901.8974">+setCalendar(Calendar calendar) : void</text><text fill="#334155" font-family="sans-serif" font-size="12" lengthAdjust="spacing" textLength="122.0098" x="337.23" y="915.8662">+getName() : String</text><text fill="#334155" font-family="sans-serif" font-size="12" lengthAdjust="spacing" textLength="183.8848" x="337.23" y="929.8349">+setName(String name) : void</text><text fill="#334155" font-family="sans-serif" font-size="12" lengthAdjust="spacing" textLength="241.6875" x="337.23" y="943.8037">+getBookedSlots() : List&lt;TimeInterval&gt;</text><text fill="#334155" font-family="sans-serif" font-size="12" lengthAdjust="spacing" textLength="293.6895" x="337.23" y="957.7724">+addBookedSlot(TimeInterval bookedSlot) : void</text><text fill="#334155" font-family="sans-serif" font-size="12" lengthAdjust="spacing" textLength="316.9336" x="337.23" y="971.7412">+removeBookedSlot(TimeInterval bookedSlot) : void</text><text fill="#334155" font-family="sans-serif" font-size="12" lengthAdjust="spacing" textLength="418.4414" x="337.23" y="985.7099">+isAvailableFor(TimeInterval interval, int requiredCapacity) : boolean</text></g><!--class MeetingScheduler--><g id="elem_MeetingScheduler"><rect codeLine="81" fill="#ECFDF5" height="213.625" id="MeetingScheduler" rx="6" ry="6" style="stroke:#10B981;stroke-width:0.5;" width="814.8984" x="7" y="7"/><ellipse cx="348.9785" cy="22" fill="#ADD1B2" rx="10" ry="10" style="stroke:#181818;stroke-width:1.0;"/><path d="M350.8379,26.2344 Q350.4004,26.4531 349.9004,26.5625 Q349.416,26.6875 348.8848,26.6875 Q346.9629,26.6875 345.9473,25.4219 Q344.9473,24.1563 344.9473,21.7656 Q344.9473,19.375 345.9473,18.1094 Q346.9629,16.8438 348.8848,16.8438 Q349.416,16.8438 349.916,16.9688 Q350.416,17.0781 350.8379,17.3125 L350.8379,19.3906 Q350.3535,18.9531 349.9004,18.75 Q349.4473,18.5313 348.9629,18.5313 Q347.9473,18.5313 347.416,19.3594 Q346.8848,20.1719 346.8848,21.7656 Q346.8848,23.375 347.416,24.1875 Q347.9473,25 348.9629,25 Q349.4473,25 349.9004,24.7969 Q350.3535,24.5938 350.8379,24.1406 L350.8379,26.2344 Z " fill="#000000"/><text fill="#334155" font-family="sans-serif" font-size="12" font-weight="bold" lengthAdjust="spacing" textLength="122.9414" x="367.9785" y="26.1543">MeetingScheduler</text><line style="stroke:#10B981;stroke-width:0.5;" x1="8" x2="820.8984" y1="37" y2="37"/><text fill="#334155" font-family="sans-serif" font-size="12" lengthAdjust="spacing" textLength="243.5449" x="13" y="52.1387">-allMeetingRooms : List&lt;MeetingRoom&gt;</text><line style="stroke:#10B981;stroke-width:0.5;" x1="8" x2="820.8984" y1="58.9688" y2="58.9688"/><text fill="#334155" font-family="sans-serif" font-size="12" lengthAdjust="spacing" textLength="802.8984" x="13" y="74.1074">+scheduleMeeting(User organiser, Map&lt;User,ParticipantResponse&gt; participants, String subject, TimeInterval timeInterval) : Meeting</text><text fill="#334155" font-family="sans-serif" font-size="12" lengthAdjust="spacing" textLength="245.6484" x="13" y="88.0762">+cancelMeeting(Meeting meeting) : void</text><text fill="#334155" font-family="sans-serif" font-size="12" lengthAdjust="spacing" textLength="355.2012" x="13" y="102.0449">-simulateUserResponsesForInvites(Meeting meeting) : void</text><text fill="#334155" font-family="sans-serif" font-size="12" lengthAdjust="spacing" textLength="140.4199" x="13" y="116.0137">-getMeetingId() : String</text><text fill="#334155" font-family="sans-serif" font-size="12" lengthAdjust="spacing" textLength="333.498" x="13" y="129.9824">+addMeetingRoom(MeetingRoom meetingRoom) : void</text><text fill="#334155" font-family="sans-serif" font-size="12" lengthAdjust="spacing" textLength="356.7422" x="13" y="143.9512">+removeMeetingRoom(MeetingRoom meetingRoom) : void</text><text fill="#334155" font-family="sans-serif" font-size="12" lengthAdjust="spacing" textLength="325.4414" x="13" y="157.9199">-notifyParticipantsWithInvites(Meeting meeting) : void</text><text fill="#334155" font-family="sans-serif" font-size="12" lengthAdjust="spacing" textLength="416.1973" x="13" y="171.8887">-notifyParticipantsAboutMeetingCancellation(Meeting meeting) : void</text><text fill="#334155" font-family="sans-serif" font-size="12" lengthAdjust="spacing" textLength="336.4863" x="13" y="185.8574">+bookSlot(MeetingRoom room, Meeting meeting) : void</text><text fill="#334155" font-family="sans-serif" font-size="12" lengthAdjust="spacing" textLength="351.2578" x="13" y="199.8262">+releaseSlot(MeetingRoom room, Meeting meeting) : void</text><text fill="#334155" font-family="sans-serif" font-size="12" lengthAdjust="spacing" textLength="467.4785" x="13" y="213.7949">+checkForAvailableRooms(int capacity, TimeInterval interval) : MeetingRoom</text></g><!--class Notification--><g id="elem_Notification"><rect codeLine="96" fill="#ECFDF5" height="101.875" id="Notification" rx="6" ry="6" style="stroke:#10B981;stroke-width:0.5;" width="422.1094" x="1292.39" y="62.87"/><ellipse cx="1459.7855" cy="77.87" fill="#ADD1B2" rx="10" ry="10" style="stroke:#181818;stroke-width:1.0;"/><path d="M1461.6449,82.1044 Q1461.2074,82.3231 1460.7074,82.4325 Q1460.223,82.5575 1459.6918,82.5575 Q1457.7699,82.5575 1456.7543,81.2919 Q1455.7543,80.0263 1455.7543,77.6356 Q1455.7543,75.245 1456.7543,73.9794 Q1457.7699,72.7138 1459.6918,72.7138 Q1460.223,72.7138 1460.723,72.8388 Q1461.223,72.9481 1461.6449,73.1825 L1461.6449,75.2606 Q1461.1605,74.8231 1460.7074,74.62 Q1460.2543,74.4013 1459.7699,74.4013 Q1458.7543,74.4013 1458.223,75.2294 Q1457.6918,76.0419 1457.6918,77.6356 Q1457.6918,79.245 1458.223,80.0575 Q1458.7543,80.87 1459.7699,80.87 Q1460.2543,80.87 1460.7074,80.6669 Q1461.1605,80.4638 1461.6449,80.0106 L1461.6449,82.1044 Z " fill="#000000"/><text fill="#334155" font-family="sans-serif" font-size="12" font-weight="bold" lengthAdjust="spacing" textLength="79.3184" x="1478.7855" y="82.0243">Notification</text><line style="stroke:#10B981;stroke-width:0.5;" x1="1293.39" x2="1713.4994" y1="92.87" y2="92.87"/><text fill="#334155" font-family="sans-serif" font-size="12" lengthAdjust="spacing" textLength="110.2852" x="1298.39" y="108.0087">-notificationId : int</text><text fill="#334155" font-family="sans-serif" font-size="12" lengthAdjust="spacing" textLength="105.7441" x="1298.39" y="121.9774">-message : String</text><line style="stroke:#10B981;stroke-width:0.5;" x1="1293.39" x2="1713.4994" y1="128.8075" y2="128.8075"/><text fill="#334155" font-family="sans-serif" font-size="12" lengthAdjust="spacing" textLength="403.125" x="1298.39" y="143.9462">+sendMeetingInviteNotification(User user, Meeting meeting) : void</text><text fill="#334155" font-family="sans-serif" font-size="12" lengthAdjust="spacing" textLength="410.1094" x="1298.39" y="157.9149">+sendCancelMeetingNotification(User user, Meeting meeting) : void</text></g><!--class ParticipantResponse--><g id="elem_ParticipantResponse"><rect codeLine="103" fill="#FFEDD5" height="93.875" id="ParticipantResponse" rx="6" ry="6" style="stroke:#EA580C;stroke-width:0.5;" width="170.0332" x="926.43" y="1073.52"/><ellipse cx="940.43" cy="1088.52" fill="#EB937F" rx="10" ry="10" style="stroke:#181818;stroke-width:1.0;"/><path d="M942.8988,1093.02 L936.9925,1093.02 L936.9925,1083.5356 L942.8988,1083.5356 L942.8988,1085.1919 L938.8675,1085.1919 L938.8675,1087.2388 L942.5238,1087.2388 L942.5238,1088.895 L938.8675,1088.895 L938.8675,1091.3638 L942.8988,1091.3638 L942.8988,1093.02 Z " fill="#000000"/><text fill="#334155" font-family="sans-serif" font-size="12" font-weight="bold" lengthAdjust="spacing" textLength="140.0332" x="953.43" y="1092.6743">ParticipantResponse</text><line style="stroke:#EA580C;stroke-width:0.5;" x1="927.43" x2="1095.4632" y1="1103.52" y2="1103.52"/><text fill="#334155" font-family="sans-serif" font-size="12" lengthAdjust="spacing" text-decoration="underline" textLength="73.9922" x="932.43" y="1118.6587">+ACCEPTED</text><text fill="#334155" font-family="sans-serif" font-size="12" lengthAdjust="spacing" text-decoration="underline" textLength="71.2793" x="932.43" y="1132.6274">+DECLINED</text><text fill="#334155" font-family="sans-serif" font-size="12" lengthAdjust="spacing" text-decoration="underline" textLength="76.1426" x="932.43" y="1146.5962">+TENTATIVE</text><text fill="#334155" font-family="sans-serif" font-size="12" lengthAdjust="spacing" text-decoration="underline" textLength="117.0645" x="932.43" y="1160.5649">+NOT_RESPONDED</text></g><!--class ParticipantType--><g id="elem_ParticipantType"><rect codeLine="110" fill="#FFEDD5" height="65.9375" id="ParticipantType" rx="6" ry="6" style="stroke:#EA580C;stroke-width:0.5;" width="137.5898" x="1302.65" y="1087.49"/><ellipse cx="1316.65" cy="1102.49" fill="#EB937F" rx="10" ry="10" style="stroke:#181818;stroke-width:1.0;"/><path d="M1319.1188,1106.99 L1313.2125,1106.99 L1313.2125,1097.5056 L1319.1188,1097.5056 L1319.1188,1099.1619 L1315.0875,1099.1619 L1315.0875,1101.2088 L1318.7438,1101.2088 L1318.7438,1102.865 L1315.0875,1102.865 L1315.0875,1105.3338 L1319.1188,1105.3338 L1319.1188,1106.99 Z " fill="#000000"/><text fill="#334155" font-family="sans-serif" font-size="12" font-weight="bold" lengthAdjust="spacing" textLength="107.5898" x="1329.65" y="1106.6443">ParticipantType</text><line style="stroke:#EA580C;stroke-width:0.5;" x1="1303.65" x2="1439.2398" y1="1117.49" y2="1117.49"/><text fill="#334155" font-family="sans-serif" font-size="12" lengthAdjust="spacing" text-decoration="underline" textLength="82.002" x="1308.65" y="1132.6287">+ORGANIZER</text><text fill="#334155" font-family="sans-serif" font-size="12" lengthAdjust="spacing" text-decoration="underline" textLength="73.8867" x="1308.65" y="1146.5974">+ATTENDEE</text></g><!--class TimeInterval--><g id="elem_TimeInterval"><rect codeLine="115" fill="#ECFDF5" height="115.8438" id="TimeInterval" rx="6" ry="6" style="stroke:#10B981;stroke-width:0.5;" width="320.1563" x="474.37" y="1062.54"/><ellipse cx="587.5604" cy="1077.54" fill="#ADD1B2" rx="10" ry="10" style="stroke:#181818;stroke-width:1.0;"/><path d="M589.4198,1081.7744 Q588.9823,1081.9931 588.4823,1082.1025 Q587.9979,1082.2275 587.4667,1082.2275 Q585.5448,1082.2275 584.5292,1080.9619 Q583.5292,1079.6963 583.5292,1077.3056 Q583.5292,1074.915 584.5292,1073.6494 Q585.5448,1072.3838 587.4667,1072.3838 Q587.9979,1072.3838 588.4979,1072.5088 Q588.9979,1072.6181 589.4198,1072.8525 L589.4198,1074.9306 Q588.9354,1074.4931 588.4823,1074.29 Q588.0292,1074.0713 587.5448,1074.0713 Q586.5292,1074.0713 585.9979,1074.8994 Q585.4667,1075.7119 585.4667,1077.3056 Q585.4667,1078.915 585.9979,1079.7275 Q586.5292,1080.54 587.5448,1080.54 Q588.0292,1080.54 588.4823,1080.3369 Q588.9354,1080.1338 589.4198,1079.6806 L589.4198,1081.7744 Z " fill="#000000"/><text fill="#334155" font-family="sans-serif" font-size="12" font-weight="bold" lengthAdjust="spacing" textLength="85.7754" x="606.5604" y="1081.6943">TimeInterval</text><line style="stroke:#10B981;stroke-width:0.5;" x1="475.37" x2="793.5263" y1="1092.54" y2="1092.54"/><text fill="#334155" font-family="sans-serif" font-size="12" lengthAdjust="spacing" textLength="163.418" x="480.37" y="1107.6787">-startTime : LocalDateTime</text><text fill="#334155" font-family="sans-serif" font-size="12" lengthAdjust="spacing" textLength="158.0742" x="480.37" y="1121.6474">-endTime : LocalDateTime</text><line style="stroke:#10B981;stroke-width:0.5;" x1="475.37" x2="793.5263" y1="1128.4775" y2="1128.4775"/><text fill="#334155" font-family="sans-serif" font-size="12" lengthAdjust="spacing" textLength="199.5762" x="480.37" y="1143.6162">+getStartTime() : LocalDateTime</text><text fill="#334155" font-family="sans-serif" font-size="12" lengthAdjust="spacing" textLength="193.0664" x="480.37" y="1157.5849">+getEndTime() : LocalDateTime</text><text fill="#334155" font-family="sans-serif" font-size="12" lengthAdjust="spacing" textLength="308.1563" x="480.37" y="1171.5537">+overlapsWith(TimeInterval newInterval) : boolean</text></g><!--class User--><g id="elem_User"><rect codeLine="123" fill="#ECFDF5" height="255.5313" id="User" rx="6" ry="6" style="stroke:#10B981;stroke-width:0.5;" width="583.5527" x="1079.67" y="730.02"/><ellipse cx="1351.9747" cy="745.02" fill="#ADD1B2" rx="10" ry="10" style="stroke:#181818;stroke-width:1.0;"/><path d="M1353.8341,749.2544 Q1353.3966,749.4731 1352.8966,749.5825 Q1352.4122,749.7075 1351.8809,749.7075 Q1349.9591,749.7075 1348.9434,748.4419 Q1347.9434,747.1763 1347.9434,744.7856 Q1347.9434,742.395 1348.9434,741.1294 Q1349.9591,739.8638 1351.8809,739.8638 Q1352.4122,739.8638 1352.9122,739.9888 Q1353.4122,740.0981 1353.8341,740.3325 L1353.8341,742.4106 Q1353.3497,741.9731 1352.8966,741.77 Q1352.4434,741.5513 1351.9591,741.5513 Q1350.9434,741.5513 1350.4122,742.3794 Q1349.8809,743.1919 1349.8809,744.7856 Q1349.8809,746.395 1350.4122,747.2075 Q1350.9434,748.02 1351.9591,748.02 Q1352.4434,748.02 1352.8966,747.8169 Q1353.3497,747.6138 1353.8341,747.1606 L1353.8341,749.2544 Z " fill="#000000"/><text fill="#334155" font-family="sans-serif" font-size="12" font-weight="bold" lengthAdjust="spacing" textLength="30.9434" x="1370.9747" y="749.1743">User</text><line style="stroke:#10B981;stroke-width:0.5;" x1="1080.67" x2="1662.2227" y1="760.02" y2="760.02"/><text fill="#334155" font-family="sans-serif" font-size="12" lengthAdjust="spacing" textLength="85.8457" x="1085.67" y="775.1587">-name : String</text><text fill="#334155" font-family="sans-serif" font-size="12" lengthAdjust="spacing" textLength="84.9082" x="1085.67" y="789.1274">-email : String</text><text fill="#334155" font-family="sans-serif" font-size="12" lengthAdjust="spacing" textLength="122.1387" x="1085.67" y="803.0962">-calendar : Calendar</text><text fill="#334155" font-family="sans-serif" font-size="12" lengthAdjust="spacing" textLength="204.7969" x="1085.67" y="817.0649">-participantType : ParticipantType</text><line style="stroke:#10B981;stroke-width:0.5;" x1="1080.67" x2="1662.2227" y1="823.895" y2="823.895"/><text fill="#334155" font-family="sans-serif" font-size="12" lengthAdjust="spacing" textLength="138.0762" x="1085.67" y="839.0337">+viewCalendar() : void</text><text fill="#334155" font-family="sans-serif" font-size="12" lengthAdjust="spacing" textLength="571.5527" x="1085.67" y="853.0024">+respondToInvitation(User participant, Meeting meeting, ParticipantResponse response) : void</text><text fill="#334155" font-family="sans-serif" font-size="12" lengthAdjust="spacing" textLength="122.0098" x="1085.67" y="866.9712">+getName() : String</text><text fill="#334155" font-family="sans-serif" font-size="12" lengthAdjust="spacing" textLength="183.8848" x="1085.67" y="880.9399">+setName(String name) : void</text><text fill="#334155" font-family="sans-serif" font-size="12" lengthAdjust="spacing" textLength="119.9004" x="1085.67" y="894.9087">+getEmail() : String</text><text fill="#334155" font-family="sans-serif" font-size="12" lengthAdjust="spacing" textLength="180.8379" x="1085.67" y="908.8774">+setEmail(String email) : void</text><text fill="#334155" font-family="sans-serif" font-size="12" lengthAdjust="spacing" textLength="158.7129" x="1085.67" y="922.8462">+getCalendar() : Calendar</text><text fill="#334155" font-family="sans-serif" font-size="12" lengthAdjust="spacing" textLength="238.7344" x="1085.67" y="936.8149">+setCalendar(Calendar calendar) : void</text><text fill="#334155" font-family="sans-serif" font-size="12" lengthAdjust="spacing" textLength="239.209" x="1085.67" y="950.7837">+getParticipantType() : ParticipantType</text><text fill="#334155" font-family="sans-serif" font-size="12" lengthAdjust="spacing" textLength="361.6406" x="1085.67" y="964.7524">+setParticipantType(ParticipantType participantType) : void</text><text fill="#334155" font-family="sans-serif" font-size="12" lengthAdjust="spacing" textLength="114.7617" x="1085.67" y="978.7212">+toString() : String</text></g><!--reverse link Calendar to TimeInterval--><g id="link_Calendar_TimeInterval"><path codeLine="141" d="M854.86,137.38 C838.31,137.38 839.66,137.38 839.66,137.38 C839.66,137.38 839.66,1066.38 839.66,1066.38 C839.66,1066.38 820.97,1066.38 794.88,1066.38 " fill="none" id="Calendar-backto-TimeInterval" style="stroke:#FB8C00;stroke-width:1.3;"/><polygon fill="none" points="866.86,137.38,860.86,133.38,854.86,137.38,860.86,141.38,866.86,137.38" style="stroke:#FB8C00;stroke-width:1.3;"/><text fill="#475569" font-family="sans-serif" font-size="12" lengthAdjust="spacing" textLength="55.9688" x="783.66" y="607.8087">meetings</text><text fill="#475569" font-family="sans-serif" font-size="12" lengthAdjust="spacing" textLength="6" x="802.2855" y="1061.7955">*</text></g><!--reverse link Calendar to Meeting--><g id="link_Calendar_Meeting"><path codeLine="142" d="M1054.45,197.83 C1054.45,228.25 1054.45,253.19 1054.45,290.28 " fill="none" id="Calendar-backto-Meeting" style="stroke:#FB8C00;stroke-width:1.3;"/><polygon fill="none" points="1054.45,185.83,1050.45,191.83,1054.45,197.83,1058.45,191.83,1054.45,185.83" style="stroke:#FB8C00;stroke-width:1.3;"/><text fill="#475569" font-family="sans-serif" font-size="12" lengthAdjust="spacing" textLength="55.9688" x="998.45" y="235.1887">meetings</text><text fill="#475569" font-family="sans-serif" font-size="12" lengthAdjust="spacing" textLength="6" x="1048.3142" y="279.9197">*</text></g><!--reverse link Meeting to TimeInterval--><g id="link_Meeting_TimeInterval"><path codeLine="143" d="M900.47,665.14 C900.47,840.98 900.47,1069.38 900.47,1069.38 C900.47,1069.38 851.13,1069.38 794.95,1069.38 " fill="none" id="Meeting-backto-TimeInterval" style="stroke:#FB8C00;stroke-width:1.3;"/><polygon fill="none" points="900.47,653.14,896.47,659.14,900.47,665.14,904.47,659.14,900.47,653.14" style="stroke:#FB8C00;stroke-width:1.3;"/><text fill="#475569" font-family="sans-serif" font-size="12" lengthAdjust="spacing" textLength="73.0664" x="826.47" y="911.1587">timeInterval</text></g><!--reverse link Meeting to User--><g id="link_Meeting_User"><path codeLine="144" d="M1200.13,665.51 C1200.13,691.22 1200.13,705.2 1200.13,729.61 " fill="none" id="Meeting-backto-User" style="stroke:#FB8C00;stroke-width:1.3;"/><polygon fill="none" points="1200.13,653.51,1196.13,659.51,1200.13,665.51,1204.13,659.51,1200.13,653.51" style="stroke:#FB8C00;stroke-width:1.3;"/><text fill="#475569" font-family="sans-serif" font-size="12" lengthAdjust="spacing" textLength="56.8008" x="1143.13" y="688.6987">organizer</text></g><!--link User to Meeting--><g id="link_User_Meeting"><path codeLine="158" d="M1139.9,729.54 C1139.9,705.08 1139.9,685.05 1139.9,659.3 " fill="none" id="User-to-Meeting" style="stroke:#90A4AE;stroke-width:1.3;stroke-dasharray:7.0,7.0;"/><polygon fill="#90A4AE" points="1139.9,653.3,1135.9,662.3,1139.9,658.3,1143.9,662.3,1139.9,653.3" style="stroke:#90A4AE;stroke-width:1.3;"/></g><!--reverse link Meeting to MeetingRoom--><g id="link_Meeting_MeetingRoom"><path codeLine="145" d="M874.51,665.38 C874.51,790.15 874.51,921.38 874.51,921.38 C874.51,921.38 823.69,921.38 762.07,921.38 " fill="none" id="Meeting-backto-MeetingRoom" style="stroke:#FB8C00;stroke-width:1.3;"/><polygon fill="none" points="874.51,653.38,870.51,659.38,874.51,665.38,878.51,659.38,874.51,653.38" style="stroke:#FB8C00;stroke-width:1.3;"/><text fill="#475569" font-family="sans-serif" font-size="12" lengthAdjust="spacing" textLength="84.4277" x="789.51" y="840.7387">meetingRoom</text></g><!--reverse link Meeting to ParticipantResponse--><g id="link_Meeting_ParticipantResponse"><path codeLine="146" d="M1003.05,665.37 C1003.05,808.54 1003.05,986.08 1003.05,1073.1 " fill="none" id="Meeting-backto-ParticipantResponse" style="stroke:#FB8C00;stroke-width:1.3;"/><polygon fill="none" points="1003.05,653.37,999.05,659.37,1003.05,665.37,1007.05,659.37,1003.05,653.37" style="stroke:#FB8C00;stroke-width:1.3;"/><text fill="#475569" font-family="sans-serif" font-size="12" lengthAdjust="spacing" textLength="60.3867" x="942.05" y="860.3787">attendees</text><text fill="#475569" font-family="sans-serif" font-size="12" lengthAdjust="spacing" textLength="6" x="995.2337" y="1062.7323">*</text></g><!--reverse link MeetingRoom to TimeInterval--><g id="link_MeetingRoom_TimeInterval"><path codeLine="147" d="M618.02,1004.97 C618.02,1029.36 618.02,1041.57 618.02,1062.23 " fill="none" id="MeetingRoom-backto-TimeInterval" style="stroke:#FB8C00;stroke-width:1.3;"/><polygon fill="none" points="618.02,992.97,614.02,998.97,618.02,1004.97,622.02,998.97,618.02,992.97" style="stroke:#FB8C00;stroke-width:1.3;"/><text fill="#475569" font-family="sans-serif" font-size="12" lengthAdjust="spacing" textLength="73.5" x="544.02" y="1024.7387">bookedSlots</text><text fill="#475569" font-family="sans-serif" font-size="12" lengthAdjust="spacing" textLength="6" x="609.4093" y="1051.7354">*</text></g><!--reverse link MeetingRoom to Calendar--><g id="link_MeetingRoom_Calendar"><path codeLine="148" d="M773.95,857.38 C813.61,857.38 830.78,857.38 830.78,857.38 C830.78,857.38 830.78,89.38 830.78,89.38 C830.78,89.38 845.2,89.38 866.72,89.38 " fill="none" id="MeetingRoom-backto-Calendar" style="stroke:#E53935;stroke-width:1.3;"/><polygon fill="#E53935" points="761.95,857.38,767.95,861.38,773.95,857.38,767.95,853.38,761.95,857.38" style="stroke:#E53935;stroke-width:1.3;"/><text fill="#475569" font-family="sans-serif" font-size="12" lengthAdjust="spacing" textLength="52.1777" x="777.78" y="486.9687">calendar</text></g><!--reverse link MeetingScheduler to MeetingRoom--><g id="link_MeetingScheduler_MeetingRoom"><path codeLine="149" d="M546.45,232.8 C546.45,365.19 546.45,578.72 546.45,722.86 " fill="none" id="MeetingScheduler-backto-MeetingRoom" style="stroke:#FB8C00;stroke-width:1.3;"/><polygon fill="none" points="546.45,220.8,542.45,226.8,546.45,232.8,550.45,226.8,546.45,220.8" style="stroke:#FB8C00;stroke-width:1.3;"/><text fill="#475569" font-family="sans-serif" font-size="12" lengthAdjust="spacing" textLength="103.3652" x="442.45" y="468.9687">allMeetingRooms</text><text fill="#475569" font-family="sans-serif" font-size="12" lengthAdjust="spacing" textLength="6" x="540.2671" y="712.4098">*</text></g><!--link MeetingScheduler to Meeting--><g id="link_MeetingScheduler_Meeting"><path codeLine="150" d="M822.32,203.38 C844.46,203.38 857.86,203.38 857.86,203.38 C857.86,203.38 857.86,236.12 857.86,284.17 " fill="none" id="MeetingScheduler-to-Meeting" style="stroke:#90A4AE;stroke-width:1.3;stroke-dasharray:7.0,7.0;"/><polygon fill="#90A4AE" points="857.86,290.17,861.86,281.17,857.86,285.17,853.86,281.17,857.86,290.17" style="stroke:#90A4AE;stroke-width:1.3;"/></g><!--link MeetingScheduler to User--><g id="link_MeetingScheduler_User"><path codeLine="151" d="M812.77,220.9 C812.77,412.56 812.77,794.38 812.77,794.38 C812.77,794.38 938.11,794.38 1073.43,794.38 " fill="none" id="MeetingScheduler-to-User" style="stroke:#90A4AE;stroke-width:1.3;stroke-dasharray:7.0,7.0;"/><polygon fill="#90A4AE" points="1079.43,794.38,1070.43,790.38,1074.43,794.38,1070.43,798.38,1079.43,794.38" style="stroke:#90A4AE;stroke-width:1.3;"/></g><!--link MeetingScheduler to ParticipantResponse--><g id="link_MeetingScheduler_ParticipantResponse"><path codeLine="152" d="M803.65,221.05 C803.65,480.41 803.65,1120.38 803.65,1120.38 C803.65,1120.38 862.72,1120.38 920.03,1120.38 " fill="none" id="MeetingScheduler-to-ParticipantResponse" style="stroke:#90A4AE;stroke-width:1.3;stroke-dasharray:7.0,7.0;"/><polygon fill="#90A4AE" points="926.03,1120.38,917.03,1116.38,921.03,1120.38,917.03,1124.38,926.03,1120.38" style="stroke:#90A4AE;stroke-width:1.3;"/></g><!--link MeetingScheduler to TimeInterval--><g id="link_MeetingScheduler_TimeInterval"><path codeLine="153" d="M778.1,221.06 C778.1,432.82 778.1,892.28 778.1,1056.06 " fill="none" id="MeetingScheduler-to-TimeInterval" style="stroke:#90A4AE;stroke-width:1.3;stroke-dasharray:7.0,7.0;"/><polygon fill="#90A4AE" points="778.1,1062.06,782.1,1053.06,778.1,1057.06,774.1,1053.06,778.1,1062.06" style="stroke:#90A4AE;stroke-width:1.3;"/></g><!--link Notification to User--><g id="link_Notification_User"><path codeLine="154" d="M1477.81,165.24 C1477.81,280.69 1477.81,557.32 1477.81,723.66 " fill="none" id="Notification-to-User" style="stroke:#90A4AE;stroke-width:1.3;stroke-dasharray:7.0,7.0;"/><polygon fill="#90A4AE" points="1477.81,729.66,1481.81,720.66,1477.81,724.66,1473.81,720.66,1477.81,729.66" style="stroke:#90A4AE;stroke-width:1.3;"/></g><!--link Notification to Meeting--><g id="link_Notification_Meeting"><path codeLine="155" d="M1292.16,113.38 C1267.57,113.38 1251.04,113.38 1251.04,113.38 C1251.04,113.38 1251.04,195.42 1251.04,284.24 " fill="none" id="Notification-to-Meeting" style="stroke:#90A4AE;stroke-width:1.3;stroke-dasharray:7.0,7.0;"/><polygon fill="#90A4AE" points="1251.04,290.24,1255.04,281.24,1251.04,285.24,1247.04,281.24,1251.04,290.24" style="stroke:#90A4AE;stroke-width:1.3;"/></g><!--reverse link User to Calendar--><g id="link_User_Calendar"><path codeLine="156" d="M1276.38,717.83 C1276.38,520.24 1276.38,175.38 1276.38,175.38 C1276.38,175.38 1262.72,175.38 1242.19,175.38 " fill="none" id="User-backto-Calendar" style="stroke:#E53935;stroke-width:1.3;"/><polygon fill="#E53935" points="1276.38,729.83,1280.38,723.83,1276.38,717.83,1272.38,723.83,1276.38,729.83" style="stroke:#E53935;stroke-width:1.3;"/><text fill="#475569" font-family="sans-serif" font-size="12" lengthAdjust="spacing" textLength="52.1777" x="1277.38" y="432.6487">calendar</text></g><!--reverse link User to ParticipantType--><g id="link_User_ParticipantType"><path codeLine="157" d="M1371.45,998.04 C1371.45,1035.42 1371.45,1061.13 1371.45,1087.05 " fill="none" id="User-backto-ParticipantType" style="stroke:#FB8C00;stroke-width:1.3;"/><polygon fill="none" points="1371.45,986.04,1367.45,992.04,1371.45,998.04,1375.45,992.04,1371.45,986.04" style="stroke:#FB8C00;stroke-width:1.3;"/><text fill="#475569" font-family="sans-serif" font-size="12" lengthAdjust="spacing" textLength="94.5879" x="1276.45" y="1033.6887">participantType</text></g><!--link User to ParticipantResponse--><g id="link_User_ParticipantResponse"><path codeLine="159" d="M1088.07,986.04 C1088.07,1017.17 1088.07,1042.52 1088.07,1067.11 " fill="none" id="User-to-ParticipantResponse" style="stroke:#90A4AE;stroke-width:1.3;stroke-dasharray:7.0,7.0;"/><polygon fill="#90A4AE" points="1088.07,1073.11,1092.07,1064.11,1088.07,1068.11,1084.07,1064.11,1088.07,1073.11" style="stroke:#90A4AE;stroke-width:1.3;"/></g><!--SRC=[hLTRJ-Cu57xlhx265sQch5gWG1522ccwgZGKHBkxqexGoaqEu2MrkxPRn8xclw_j9Cs9arvcDI_Gd9lF-SxDLg-CBwYaSv8i6EcVjTIQCAFnwxCKIvw48XMI70o3uSqmH1BgXIRYZV5dyaHJ1OYJgqaEadIF4IDEgLA1rfBDbXf6iU0JzY-G3X99u8akKpqKN8_f7CY4SZK1oPwQPPn-zmGnKyP1lo-02AbV169maO221JdjOLSfVxN4yuxl9ldM8iGTeTzJ83EH9ZaX1wGpx9uV1uQs3WWnJqvEkxsUpyoyFJRaYGO9mlg9bCu6nnU3VkixSYMGKhnDNrZyoi7urFtbn6SY_TFpNk-itoHG7Fp24Y0mN-XtCeVv3AHgjR9eGve2JwYn4eN3mR173WwwdPl-HTVXS6J4GPjSAt99RkdYQihcCE8cY1LDsxSPxze8VYOqIVBlm_n_eVlHwAu4IvoOXBbOmJwIpw0BCNmgqUZ3AkH2deuwjBmlJEchYfiAIMmCQ1rrnI4j9YQdnXrBpNwQdEKu3anSpHX-9j-Kffh5tycSCdwOQNvz95IY0zQ62aYkheOqfWbSN-z8pIWftR5ajPpz3R6k4Z5eXeEZTdmXdoatnI8DypS54X_m8CIynDb-EIxLsbGEG54QLgrzJwM9b2qerm-W5e8hkFOoCqemWDMS65v6BuFpQsAIXTTWe-3a5d8SV7qSkZFYOU5CLOIsLXysVLU0wEpcC3fx9STIIxGt5Bp5-F1Z3NECb1D1lt6oVAj1aQdCvivSAQooLRmiWjgPSGmB3GdIGYrf3QxhOW2n7TxxY4w1srPQmIxPhRsAOTlGMyms5UFQVN2xa2hj5DC5ZPcPfgNGJ8XNI2QfqAfm1nVETQwNJzlBzU1rxguOl1M4Gn_Al66oWnmbp8-lqv69oW4ACTSZl_36Fz0ku8R-SkIykImaljfDYK2P4Xy3joXAoMfpbHWsx8mVL68gM56MqbbgLgsigh1YuDjVnlm_IoOXAL2rPepH52YlrSmaVe5acSB6VKdJ59MNydQGfUKzbXigLXoQ2xRPjdSfMQ3oRvFgm6kJlTTbJ7aCwUvbR9OAcozJgi6wLBYX3AuZlcBQJeajkjj6Vtbhs7kWLMuGUsgP7XQQFRtZiV47qo_xk5_N36PYMOGKEWWDD4pmhTSPMwQkUB6tqlnfa-tt9LE72lw7fYcm-DMaQDq6hY0FRSKNuyih5LOl4xTvraqmjb2ms0MxgG4uaXdXAJet5rdw3FvOuKK1PBd0HsHDiSpwOKkaraY8I_b7ZPW0WI_dfA7Np0De60q6Dimew5rqGlzE5uHXT3-D1bNg80g_ZCO-THgDfy5qz7jK9O_lfdyzH9Fxk_70Q3GuCxNlcbsEt3ty6en7VqOFddzJS-eWYieiLdA-8Oj6MxfRa1rWmYoAWMb- - -su1kyDlEoALYXdQw199CeiR10m_IrJkd0jMftS7DxmCAkDQPViJPLPM-DWBkIflzcRDlGHdhWk6vT-VdRiSUdgAPaAL-QeCf7XMe6s6ojIvZz-qjgEB0WDUXazLtH8-Pe_wRhX0UciDO6hwg9-ZtXPskVvjdPF77qz6DvSX9tEun7vyEb3jKykrs_2BHf5-f1mGQh8UfRnYcvMS9LoMRuRcgLkA-yrj0cRnQt7JVLrMTxgMzZaBe3G3RYYzydeHRsJ_adFw8LbVnNrqAhThJO1cqVctR7g-aQztmbEWwYTK6M8ZqVNwtlFNiBkxRQNP0E0-obMdfsLnRhHePrIHOokN7R2dbqvCTJtjI7dDLIci_FeFO7w3m00]--></g></svg>