<svg xmlns="http://www.w3.org/2000/svg" xmlns:xlink="http://www.w3.org/1999/xlink" contentStyleType="text/css" height="1251px" preserveAspectRatio="none" style="width:1280px;height:1251px;background:#FAFBFC;" version="1.1" viewBox="0 0 1280 1251" width="1280px" zoomAndPan="magnify"><defs/><g><rect fill="#FAFBFC" height="1251" style="stroke:none;stroke-width:1.0;" width="1280" x="0" y="0"/><!--class Booking--><g id="elem_Booking"><rect codeLine="23" fill="#ECFDF5" height="255.5313" id="Booking" rx="6" ry="6" style="stroke:#10B981;stroke-width:0.5;" width="192.0762" x="567.61" y="299.73"/><ellipse cx="632.2174" cy="314.73" fill="#ADD1B2" rx="10" ry="10" style="stroke:#181818;stroke-width:1.0;"/><path d="M634.0768,318.9644 Q633.6393,319.1831 633.1393,319.2925 Q632.6549,319.4175 632.1237,319.4175 Q630.2018,319.4175 629.1862,318.1519 Q628.1862,316.8863 628.1862,314.4956 Q628.1862,312.105 629.1862,310.8394 Q630.2018,309.5738 632.1237,309.5738 Q632.6549,309.5738 633.1549,309.6988 Q633.6549,309.8081 634.0768,310.0425 L634.0768,312.1206 Q633.5924,311.6831 633.1393,311.48 Q632.6862,311.2613 632.2018,311.2613 Q631.1862,311.2613 630.6549,312.0894 Q630.1237,312.9019 630.1237,314.4956 Q630.1237,316.105 630.6549,316.9175 Q631.1862,317.73 632.2018,317.73 Q632.6862,317.73 633.1393,317.5269 Q633.5924,317.3238 634.0768,316.8706 L634.0768,318.9644 Z " fill="#000000"/><text fill="#334155" font-family="sans-serif" font-size="12" font-weight="bold" lengthAdjust="spacing" textLength="54.8613" x="651.2174" y="318.8843">Booking</text><line style="stroke:#10B981;stroke-width:0.5;" x1="568.61" x2="758.6862" y1="329.73" y2="329.73"/><text fill="#334155" font-family="sans-serif" font-size="12" lengthAdjust="spacing" textLength="62.7656" x="573.61" y="344.8687">-id : String</text><text fill="#334155" font-family="sans-serif" font-size="12" lengthAdjust="spacing" textLength="69.5273" x="573.61" y="358.8374">-user : User</text><text fill="#334155" font-family="sans-serif" font-size="12" lengthAdjust="spacing" textLength="108.1113" x="573.61" y="372.8062">-concert : Concert</text><text fill="#334155" font-family="sans-serif" font-size="12" lengthAdjust="spacing" textLength="116.0918" x="573.61" y="386.7749">-seats : List&lt;Seat&gt;</text><text fill="#334155" font-family="sans-serif" font-size="12" lengthAdjust="spacing" textLength="113.8242" x="573.61" y="400.7437">-totalPrice : double</text><text fill="#334155" font-family="sans-serif" font-size="12" lengthAdjust="spacing" textLength="139.5352" x="573.61" y="414.7124">-status : BookingStatus</text><line style="stroke:#10B981;stroke-width:0.5;" x1="568.61" x2="758.6862" y1="421.5425" y2="421.5425"/><text fill="#334155" font-family="sans-serif" font-size="12" lengthAdjust="spacing" textLength="180.0762" x="573.61" y="436.6812">-calculateTotalPrice() : double</text><text fill="#334155" font-family="sans-serif" font-size="12" lengthAdjust="spacing" textLength="150.6328" x="573.61" y="450.6499">+confirmBooking() : void</text><text fill="#334155" font-family="sans-serif" font-size="12" lengthAdjust="spacing" textLength="143.7773" x="573.61" y="464.6187">+cancelBooking() : void</text><text fill="#334155" font-family="sans-serif" font-size="12" lengthAdjust="spacing" textLength="97.7637" x="573.61" y="478.5874">+getId() : String</text><text fill="#334155" font-family="sans-serif" font-size="12" lengthAdjust="spacing" textLength="105.498" x="573.61" y="492.5562">+getUser() : User</text><text fill="#334155" font-family="sans-serif" font-size="12" lengthAdjust="spacing" textLength="144.6855" x="573.61" y="506.5249">+getConcert() : Concert</text><text fill="#334155" font-family="sans-serif" font-size="12" lengthAdjust="spacing" textLength="152.25" x="573.61" y="520.4937">+getSeats() : List&lt;Seat&gt;</text><text fill="#334155" font-family="sans-serif" font-size="12" lengthAdjust="spacing" textLength="151.2422" x="573.61" y="534.4624">+getTotalPrice() : double</text><text fill="#334155" font-family="sans-serif" font-size="12" lengthAdjust="spacing" textLength="175.6934" x="573.61" y="548.4312">+getStatus() : BookingStatus</text></g><!--class BookingStatus--><g id="elem_BookingStatus"><rect codeLine="41" fill="#FFEDD5" height="79.9063" id="BookingStatus" rx="6" ry="6" style="stroke:#EA580C;stroke-width:0.5;" width="128.7598" x="514.27" y="678.15"/><ellipse cx="528.27" cy="693.15" fill="#EB937F" rx="10" ry="10" style="stroke:#181818;stroke-width:1.0;"/><path d="M530.7388,697.65 L524.8325,697.65 L524.8325,688.1656 L530.7388,688.1656 L530.7388,689.8219 L526.7075,689.8219 L526.7075,691.8688 L530.3638,691.8688 L530.3638,693.525 L526.7075,693.525 L526.7075,695.9938 L530.7388,695.9938 L530.7388,697.65 Z " fill="#000000"/><text fill="#334155" font-family="sans-serif" font-size="12" font-weight="bold" lengthAdjust="spacing" textLength="98.7598" x="541.27" y="697.3043">BookingStatus</text><line style="stroke:#EA580C;stroke-width:0.5;" x1="515.27" x2="642.0298" y1="708.15" y2="708.15"/><text fill="#334155" font-family="sans-serif" font-size="12" lengthAdjust="spacing" text-decoration="underline" textLength="64.9043" x="520.27" y="723.2887">+PENDING</text><text fill="#334155" font-family="sans-serif" font-size="12" lengthAdjust="spacing" text-decoration="underline" textLength="82.8105" x="520.27" y="737.2574">+CONFIRMED</text><text fill="#334155" font-family="sans-serif" font-size="12" lengthAdjust="spacing" text-decoration="underline" textLength="81.7734" x="520.27" y="751.2262">+CANCELLED</text></g><!--class Concert--><g id="elem_Concert"><rect codeLine="47" fill="#ECFDF5" height="185.6875" id="Concert" rx="6" ry="6" style="stroke:#10B981;stroke-width:0.5;" width="210.9434" x="258.18" y="625.26"/><ellipse cx="333.4017" cy="640.26" fill="#ADD1B2" rx="10" ry="10" style="stroke:#181818;stroke-width:1.0;"/><path d="M335.2611,644.4944 Q334.8236,644.7131 334.3236,644.8225 Q333.8392,644.9475 333.3079,644.9475 Q331.3861,644.9475 330.3704,643.6819 Q329.3704,642.4163 329.3704,640.0256 Q329.3704,637.635 330.3704,636.3694 Q331.3861,635.1038 333.3079,635.1038 Q333.8392,635.1038 334.3392,635.2288 Q334.8392,635.3381 335.2611,635.5725 L335.2611,637.6506 Q334.7767,637.2131 334.3236,637.01 Q333.8704,636.7913 333.3861,636.7913 Q332.3704,636.7913 331.8392,637.6194 Q331.3079,638.4319 331.3079,640.0256 Q331.3079,641.635 331.8392,642.4475 Q332.3704,643.26 333.3861,643.26 Q333.8704,643.26 334.3236,643.0569 Q334.7767,642.8538 335.2611,642.4006 L335.2611,644.4944 Z " fill="#000000"/><text fill="#334155" font-family="sans-serif" font-size="12" font-weight="bold" lengthAdjust="spacing" textLength="52.5" x="352.4017" y="644.4143">Concert</text><line style="stroke:#10B981;stroke-width:0.5;" x1="259.18" x2="468.1234" y1="655.26" y2="655.26"/><text fill="#334155" font-family="sans-serif" font-size="12" lengthAdjust="spacing" textLength="62.7656" x="264.18" y="670.3987">-id : String</text><text fill="#334155" font-family="sans-serif" font-size="12" lengthAdjust="spacing" textLength="83.0977" x="264.18" y="684.3674">-artist : String</text><text fill="#334155" font-family="sans-serif" font-size="12" lengthAdjust="spacing" textLength="88.8926" x="264.18" y="698.3362">-venue : String</text><text fill="#334155" font-family="sans-serif" font-size="12" lengthAdjust="spacing" textLength="162.5273" x="264.18" y="712.3049">-dateTime : LocalDateTime</text><text fill="#334155" font-family="sans-serif" font-size="12" lengthAdjust="spacing" textLength="116.0918" x="264.18" y="726.2737">-seats : List&lt;Seat&gt;</text><line style="stroke:#10B981;stroke-width:0.5;" x1="259.18" x2="468.1234" y1="733.1038" y2="733.1038"/><text fill="#334155" font-family="sans-serif" font-size="12" lengthAdjust="spacing" textLength="97.7637" x="264.18" y="748.2424">+getId() : String</text><text fill="#334155" font-family="sans-serif" font-size="12" lengthAdjust="spacing" textLength="118.7461" x="264.18" y="762.2112">+getArtist() : String</text><text fill="#334155" font-family="sans-serif" font-size="12" lengthAdjust="spacing" textLength="124.793" x="264.18" y="776.1799">+getVenue() : String</text><text fill="#334155" font-family="sans-serif" font-size="12" lengthAdjust="spacing" textLength="198.9434" x="264.18" y="790.1487">+getDateTime() : LocalDateTime</text><text fill="#334155" font-family="sans-serif" font-size="12" lengthAdjust="spacing" textLength="152.25" x="264.18" y="804.1174">+getSeats() : List&lt;Seat&gt;</text></g><!--class ConcertTicketBookingSystem--><g id="elem_ConcertTicketBookingSystem"><rect codeLine="60" fill="#ECFDF5" height="222.7266" id="ConcertTicketBookingSystem" rx="6" ry="6" style="stroke:#10B981;stroke-width:0.5;" width="537.6563" x="476.82" y="7"/><ellipse cx="642.3405" cy="26.5508" fill="#ADD1B2" rx="10" ry="10" style="stroke:#181818;stroke-width:1.0;"/><path d="M644.1999,30.7852 Q643.7624,31.0039 643.2624,31.1133 Q642.778,31.2383 642.2468,31.2383 Q640.3249,31.2383 639.3093,29.9727 Q638.3093,28.707 638.3093,26.3164 Q638.3093,23.9258 639.3093,22.6602 Q640.3249,21.3945 642.2468,21.3945 Q642.778,21.3945 643.278,21.5195 Q643.778,21.6289 644.1999,21.8633 L644.1999,23.9414 Q643.7155,23.5039 643.2624,23.3008 Q642.8093,23.082 642.3249,23.082 Q641.3093,23.082 640.778,23.9102 Q640.2468,24.7227 640.2468,26.3164 Q640.2468,27.9258 640.778,28.7383 Q641.3093,29.5508 642.3249,29.5508 Q642.8093,29.5508 643.2624,29.3477 Q643.7155,29.1445 644.1999,28.6914 L644.1999,30.7852 Z " fill="#000000"/><text fill="#6D28D9" font-family="sans-serif" font-size="13" font-style="italic" lengthAdjust="spacing" textLength="77.3018" x="721.9972" y="24.0669">&#171;Singleton&#187;</text><text fill="#334155" font-family="sans-serif" font-size="12" font-weight="bold" lengthAdjust="spacing" textLength="198.6152" x="661.3405" y="38.2715">ConcertTicketBookingSystem</text><line style="stroke:#10B981;stroke-width:0.5;" x1="477.82" x2="1013.4762" y1="46.1016" y2="46.1016"/><text fill="#334155" font-family="sans-serif" font-size="12" lengthAdjust="spacing" text-decoration="underline" textLength="243.252" x="482.82" y="61.2402">-instance : ConcertTicketBookingSystem</text><text fill="#334155" font-family="sans-serif" font-size="12" lengthAdjust="spacing" textLength="199.4238" x="482.82" y="75.209">-concerts : Map&lt;String,Concert&gt;</text><text fill="#334155" font-family="sans-serif" font-size="12" lengthAdjust="spacing" textLength="203.543" x="482.82" y="89.1777">-bookings : Map&lt;String,Booking&gt;</text><text fill="#334155" font-family="sans-serif" font-size="12" lengthAdjust="spacing" textLength="79.3066" x="482.82" y="103.1465">-lock : Object</text><line style="stroke:#10B981;stroke-width:0.5;" x1="477.82" x2="1013.4762" y1="109.9766" y2="109.9766"/><text fill="#334155" font-family="sans-serif" font-size="12" lengthAdjust="spacing" text-decoration="underline" textLength="278.25" x="482.82" y="125.1152">+getInstance() : ConcertTicketBookingSystem</text><text fill="#334155" font-family="sans-serif" font-size="12" lengthAdjust="spacing" textLength="221.9414" x="482.82" y="139.084">+addConcert(Concert concert) : void</text><text fill="#334155" font-family="sans-serif" font-size="12" lengthAdjust="spacing" textLength="240.6328" x="482.82" y="153.0527">+getConcert(String concertId) : Concert</text><text fill="#334155" font-family="sans-serif" font-size="12" lengthAdjust="spacing" textLength="525.6563" x="482.82" y="167.0215">+searchConcerts(String artist, String venue, LocalDateTime dateTime) : List&lt;Concert&gt;</text><text fill="#334155" font-family="sans-serif" font-size="12" lengthAdjust="spacing" textLength="423.7383" x="482.82" y="180.9902">+bookTickets(User user, Concert concert, List&lt;Seat&gt; seats) : Booking</text><text fill="#334155" font-family="sans-serif" font-size="12" lengthAdjust="spacing" textLength="242.3672" x="482.82" y="194.959">+cancelBooking(String bookingId) : void</text><text fill="#334155" font-family="sans-serif" font-size="12" lengthAdjust="spacing" textLength="250.2539" x="482.82" y="208.9277">-processPayment(Booking booking) : void</text><text fill="#334155" font-family="sans-serif" font-size="12" lengthAdjust="spacing" textLength="175.1191" x="482.82" y="222.8965">-generateBookingId() : String</text></g><!--class ConcertTicketBookingSystemDemo--><g id="elem_ConcertTicketBookingSystemDemo"><rect codeLine="75" fill="#ECFDF5" height="79.9063" id="ConcertTicketBookingSystemDemo" rx="6" ry="6" style="stroke:#10B981;stroke-width:0.5;" width="391.3008" x="7" y="387.54"/><ellipse cx="79.9189" cy="402.54" fill="#ADD1B2" rx="10" ry="10" style="stroke:#181818;stroke-width:1.0;"/><path d="M81.7783,406.7744 Q81.3408,406.9931 80.8408,407.1025 Q80.3564,407.2275 79.8252,407.2275 Q77.9033,407.2275 76.8877,405.9619 Q75.8877,404.6962 75.8877,402.3056 Q75.8877,399.915 76.8877,398.6494 Q77.9033,397.3837 79.8252,397.3837 Q80.3564,397.3837 80.8564,397.5087 Q81.3564,397.6181 81.7783,397.8525 L81.7783,399.9306 Q81.2939,399.4931 80.8408,399.29 Q80.3877,399.0712 79.9033,399.0712 Q78.8877,399.0712 78.3564,399.8994 Q77.8252,400.7119 77.8252,402.3056 Q77.8252,403.915 78.3564,404.7275 Q78.8877,405.54 79.9033,405.54 Q80.3877,405.54 80.8408,405.3369 Q81.2939,405.1337 81.7783,404.6806 L81.7783,406.7744 Z " fill="#000000"/><text fill="#334155" font-family="sans-serif" font-size="12" font-weight="bold" lengthAdjust="spacing" textLength="237.4629" x="98.9189" y="406.6943">ConcertTicketBookingSystemDemo</text><line style="stroke:#10B981;stroke-width:0.5;" x1="8" x2="397.3008" y1="417.54" y2="417.54"/><text fill="#334155" font-family="sans-serif" font-size="12" lengthAdjust="spacing" text-decoration="underline" textLength="76.6289" x="13" y="432.6787">+run() : void</text><text fill="#334155" font-family="sans-serif" font-size="12" lengthAdjust="spacing" text-decoration="underline" textLength="294.457" x="13" y="446.6474">-generateSeats(int numberOfSeats) : List&lt;Seat&gt;</text><text fill="#334155" font-family="sans-serif" font-size="12" lengthAdjust="spacing" text-decoration="underline" textLength="379.3008" x="13" y="460.6162">-selectSeats(Concert concert, int numberOfSeats) : List&lt;Seat&gt;</text></g><!--class Seat--><g id="elem_Seat"><rect codeLine="81" fill="#ECFDF5" height="213.625" id="Seat" rx="6" ry="6" style="stroke:#10B981;stroke-width:0.5;" width="175.7754" x="448.76" y="880.95"/><ellipse cx="517.3401" cy="895.95" fill="#ADD1B2" rx="10" ry="10" style="stroke:#181818;stroke-width:1.0;"/><path d="M519.1995,900.1844 Q518.762,900.4031 518.262,900.5125 Q517.7776,900.6375 517.2463,900.6375 Q515.3245,900.6375 514.3088,899.3719 Q513.3088,898.1063 513.3088,895.7156 Q513.3088,893.325 514.3088,892.0594 Q515.3245,890.7938 517.2463,890.7938 Q517.7776,890.7938 518.2776,890.9188 Q518.7776,891.0281 519.1995,891.2625 L519.1995,893.3406 Q518.7151,892.9031 518.262,892.7 Q517.8088,892.4813 517.3245,892.4813 Q516.3088,892.4813 515.7776,893.3094 Q515.2463,894.1219 515.2463,895.7156 Q515.2463,897.325 515.7776,898.1375 Q516.3088,898.95 517.3245,898.95 Q517.8088,898.95 518.262,898.7469 Q518.7151,898.5438 519.1995,898.0906 L519.1995,900.1844 Z " fill="#000000"/><text fill="#334155" font-family="sans-serif" font-size="12" font-weight="bold" lengthAdjust="spacing" textLength="30.6152" x="536.3401" y="900.1043">Seat</text><line style="stroke:#10B981;stroke-width:0.5;" x1="449.76" x2="623.5354" y1="910.95" y2="910.95"/><text fill="#334155" font-family="sans-serif" font-size="12" lengthAdjust="spacing" textLength="62.7656" x="454.76" y="926.0887">-id : String</text><text fill="#334155" font-family="sans-serif" font-size="12" lengthAdjust="spacing" textLength="125.7129" x="454.76" y="940.0574">-seatNumber : String</text><text fill="#334155" font-family="sans-serif" font-size="12" lengthAdjust="spacing" textLength="127.6172" x="454.76" y="954.0262">-seatType : SeatType</text><text fill="#334155" font-family="sans-serif" font-size="12" lengthAdjust="spacing" textLength="86.7656" x="454.76" y="967.9949">-price : double</text><text fill="#334155" font-family="sans-serif" font-size="12" lengthAdjust="spacing" textLength="118.1719" x="454.76" y="981.9637">-status : SeatStatus</text><line style="stroke:#10B981;stroke-width:0.5;" x1="449.76" x2="623.5354" y1="988.7938" y2="988.7938"/><text fill="#334155" font-family="sans-serif" font-size="12" lengthAdjust="spacing" textLength="85.7344" x="454.76" y="1003.9324">+book() : void</text><text fill="#334155" font-family="sans-serif" font-size="12" lengthAdjust="spacing" textLength="100.5059" x="454.76" y="1017.9012">+release() : void</text><text fill="#334155" font-family="sans-serif" font-size="12" lengthAdjust="spacing" textLength="121.1777" x="454.76" y="1031.8699">+getPrice() : double</text><text fill="#334155" font-family="sans-serif" font-size="12" lengthAdjust="spacing" textLength="97.7637" x="454.76" y="1045.8387">+getId() : String</text><text fill="#334155" font-family="sans-serif" font-size="12" lengthAdjust="spacing" textLength="161.8711" x="454.76" y="1059.8074">+getSeatNumber() : String</text><text fill="#334155" font-family="sans-serif" font-size="12" lengthAdjust="spacing" textLength="163.7754" x="454.76" y="1073.7762">+getSeatType() : SeatType</text><text fill="#334155" font-family="sans-serif" font-size="12" lengthAdjust="spacing" textLength="154.3301" x="454.76" y="1087.7449">+getStatus() : SeatStatus</text></g><!--class SeatNotAvailableException--><g id="elem_SeatNotAvailableException"><rect codeLine="96" fill="#ECFDF5" height="30" id="SeatNotAvailableException" rx="6" ry="6" style="stroke:#10B981;stroke-width:0.5;" width="213.4277" x="1059.94" y="103.37"/><ellipse cx="1073.94" cy="118.37" fill="#ADD1B2" rx="10" ry="10" style="stroke:#181818;stroke-width:1.0;"/><path d="M1075.7994,122.6044 Q1075.3619,122.8231 1074.8619,122.9325 Q1074.3775,123.0575 1073.8463,123.0575 Q1071.9244,123.0575 1070.9088,121.7919 Q1069.9088,120.5263 1069.9088,118.1356 Q1069.9088,115.745 1070.9088,114.4794 Q1071.9244,113.2138 1073.8463,113.2138 Q1074.3775,113.2138 1074.8775,113.3388 Q1075.3775,113.4481 1075.7994,113.6825 L1075.7994,115.7606 Q1075.315,115.3231 1074.8619,115.12 Q1074.4088,114.9013 1073.9244,114.9013 Q1072.9088,114.9013 1072.3775,115.7294 Q1071.8463,116.5419 1071.8463,118.1356 Q1071.8463,119.745 1072.3775,120.5575 Q1072.9088,121.37 1073.9244,121.37 Q1074.4088,121.37 1074.8619,121.1669 Q1075.315,120.9638 1075.7994,120.5106 L1075.7994,122.6044 Z " fill="#000000"/><text fill="#334155" font-family="sans-serif" font-size="12" font-weight="bold" lengthAdjust="spacing" textLength="183.4277" x="1086.94" y="122.5243">SeatNotAvailableException</text></g><!--class SeatStatus--><g id="elem_SeatStatus"><rect codeLine="99" fill="#FFEDD5" height="79.9063" id="SeatStatus" rx="6" ry="6" style="stroke:#EA580C;stroke-width:0.5;" width="104.5137" x="412.39" y="1164.57"/><ellipse cx="426.39" cy="1179.57" fill="#EB937F" rx="10" ry="10" style="stroke:#181818;stroke-width:1.0;"/><path d="M428.8588,1184.07 L422.9525,1184.07 L422.9525,1174.5856 L428.8588,1174.5856 L428.8588,1176.2419 L424.8275,1176.2419 L424.8275,1178.2888 L428.4838,1178.2888 L428.4838,1179.945 L424.8275,1179.945 L424.8275,1182.4138 L428.8588,1182.4138 L428.8588,1184.07 Z " fill="#000000"/><text fill="#334155" font-family="sans-serif" font-size="12" font-weight="bold" lengthAdjust="spacing" textLength="74.5137" x="439.39" y="1183.7243">SeatStatus</text><line style="stroke:#EA580C;stroke-width:0.5;" x1="413.39" x2="515.9037" y1="1194.57" y2="1194.57"/><text fill="#334155" font-family="sans-serif" font-size="12" lengthAdjust="spacing" text-decoration="underline" textLength="75.6152" x="418.39" y="1209.7087">+AVAILABLE</text><text fill="#334155" font-family="sans-serif" font-size="12" lengthAdjust="spacing" text-decoration="underline" textLength="61.8691" x="418.39" y="1223.6774">+BOOKED</text><text fill="#334155" font-family="sans-serif" font-size="12" lengthAdjust="spacing" text-decoration="underline" textLength="74.543" x="418.39" y="1237.6462">+RESERVED</text></g><!--class SeatType--><g id="elem_SeatType"><rect codeLine="105" fill="#FFEDD5" height="79.9063" id="SeatType" rx="6" ry="6" style="stroke:#EA580C;stroke-width:0.5;" width="93.3516" x="561.97" y="1164.57"/><ellipse cx="575.97" cy="1179.57" fill="#EB937F" rx="10" ry="10" style="stroke:#181818;stroke-width:1.0;"/><path d="M578.4388,1184.07 L572.5325,1184.07 L572.5325,1174.5856 L578.4388,1174.5856 L578.4388,1176.2419 L574.4075,1176.2419 L574.4075,1178.2888 L578.0638,1178.2888 L578.0638,1179.945 L574.4075,1179.945 L574.4075,1182.4138 L578.4388,1182.4138 L578.4388,1184.07 Z " fill="#000000"/><text fill="#334155" font-family="sans-serif" font-size="12" font-weight="bold" lengthAdjust="spacing" textLength="63.3516" x="588.97" y="1183.7243">SeatType</text><line style="stroke:#EA580C;stroke-width:0.5;" x1="562.97" x2="654.3216" y1="1194.57" y2="1194.57"/><text fill="#334155" font-family="sans-serif" font-size="12" lengthAdjust="spacing" text-decoration="underline" textLength="67.2891" x="567.97" y="1209.7087">+REGULAR</text><text fill="#334155" font-family="sans-serif" font-size="12" lengthAdjust="spacing" text-decoration="underline" textLength="66.2402" x="567.97" y="1223.6774">+PREMIUM</text><text fill="#334155" font-family="sans-serif" font-size="12" lengthAdjust="spacing" text-decoration="underline" textLength="29.0391" x="567.97" y="1237.6462">+VIP</text></g><!--class User--><g id="elem_User"><rect codeLine="111" fill="#ECFDF5" height="79.9063" id="User" rx="6" ry="6" style="stroke:#10B981;stroke-width:0.5;" width="97.8457" x="778.73" y="678.15"/><ellipse cx="809.3361" cy="693.15" fill="#ADD1B2" rx="10" ry="10" style="stroke:#181818;stroke-width:1.0;"/><path d="M811.1954,697.3844 Q810.7579,697.6031 810.2579,697.7125 Q809.7736,697.8375 809.2423,697.8375 Q807.3204,697.8375 806.3048,696.5719 Q805.3048,695.3063 805.3048,692.9156 Q805.3048,690.525 806.3048,689.2594 Q807.3204,687.9938 809.2423,687.9938 Q809.7736,687.9938 810.2736,688.1188 Q810.7736,688.2281 811.1954,688.4625 L811.1954,690.5406 Q810.7111,690.1031 810.2579,689.9 Q809.8048,689.6813 809.3204,689.6813 Q808.3048,689.6813 807.7736,690.5094 Q807.2423,691.3219 807.2423,692.9156 Q807.2423,694.525 807.7736,695.3375 Q808.3048,696.15 809.3204,696.15 Q809.8048,696.15 810.2579,695.9469 Q810.7111,695.7438 811.1954,695.2906 L811.1954,697.3844 Z " fill="#000000"/><text fill="#334155" font-family="sans-serif" font-size="12" font-weight="bold" lengthAdjust="spacing" textLength="30.9434" x="826.0263" y="697.3043">User</text><line style="stroke:#10B981;stroke-width:0.5;" x1="779.73" x2="875.5757" y1="708.15" y2="708.15"/><text fill="#334155" font-family="sans-serif" font-size="12" lengthAdjust="spacing" textLength="62.7656" x="784.73" y="723.2887">-id : String</text><text fill="#334155" font-family="sans-serif" font-size="12" lengthAdjust="spacing" textLength="85.8457" x="784.73" y="737.2574">-name : String</text><text fill="#334155" font-family="sans-serif" font-size="12" lengthAdjust="spacing" textLength="84.9082" x="784.73" y="751.2262">-email : String</text></g><!--reverse link Booking to User--><g id="link_Booking_User"><path codeLine="117" d="M707.51,567.55 C707.51,645.62 707.51,718.48 707.51,718.48 C707.51,718.48 745.26,718.48 778.44,718.48 " fill="none" id="Booking-backto-User" style="stroke:#FB8C00;stroke-width:1.3;"/><polygon fill="none" points="707.51,555.55,703.51,561.55,707.51,567.55,711.51,561.55,707.51,555.55" style="stroke:#FB8C00;stroke-width:1.3;"/><text fill="#475569" font-family="sans-serif" font-size="12" lengthAdjust="spacing" textLength="26.1738" x="680.51" y="669.6187">user</text></g><!--reverse link Booking to Concert--><g id="link_Booking_Concert"><path codeLine="118" d="M592.75,567.57 C592.75,621.71 592.75,660.48 592.75,660.48 C592.75,660.48 529.51,660.48 469.48,660.48 " fill="none" id="Booking-backto-Concert" style="stroke:#FB8C00;stroke-width:1.3;"/><polygon fill="none" points="592.75,555.57,588.75,561.57,592.75,567.57,596.75,561.57,592.75,555.57" style="stroke:#FB8C00;stroke-width:1.3;"/><text fill="#475569" font-family="sans-serif" font-size="12" lengthAdjust="spacing" textLength="45.1641" x="537.57" y="657.6187">concert</text></g><!--reverse link Booking to Seat--><g id="link_Booking_Seat"><path codeLine="119" d="M555.19,511.48 C521.95,511.48 504.91,511.48 504.91,511.48 C504.91,511.48 504.91,740.13 504.91,880.58 " fill="none" id="Booking-backto-Seat" style="stroke:#FB8C00;stroke-width:1.3;"/><polygon fill="none" points="567.19,511.48,561.19,507.48,555.19,511.48,561.19,515.48,567.19,511.48" style="stroke:#FB8C00;stroke-width:1.3;"/><text fill="#475569" font-family="sans-serif" font-size="12" lengthAdjust="spacing" textLength="31.9453" x="472.91" y="662.0287">seats</text><text fill="#475569" font-family="sans-serif" font-size="12" lengthAdjust="spacing" textLength="6" x="496.2504" y="870.0519">*</text></g><!--link Booking to BookingStatus--><g id="link_Booking_BookingStatus"><path codeLine="120" d="M617.89,555.38 C617.89,599.55 617.89,639.88 617.89,671.77 " fill="none" id="Booking-to-BookingStatus" style="stroke:#546E7A;stroke-width:1.3;"/><polygon fill="#546E7A" points="617.89,677.77,621.89,668.77,617.89,672.77,613.89,668.77,617.89,677.77" style="stroke:#546E7A;stroke-width:1.3;"/><text fill="#475569" font-family="sans-serif" font-size="12" lengthAdjust="spacing" textLength="36.873" x="580.89" y="613.7087">status</text></g><!--reverse link Concert to Seat--><g id="link_Concert_Seat"><path codeLine="121" d="M458.94,823.28 C458.94,845.66 458.94,857.74 458.94,880.69 " fill="none" id="Concert-backto-Seat" style="stroke:#FB8C00;stroke-width:1.3;"/><polygon fill="none" points="458.94,811.28,454.94,817.28,458.94,823.28,462.94,817.28,458.94,811.28" style="stroke:#FB8C00;stroke-width:1.3;"/><text fill="#475569" font-family="sans-serif" font-size="12" lengthAdjust="spacing" textLength="31.9453" x="426.94" y="843.1287">seats</text><text fill="#475569" font-family="sans-serif" font-size="12" lengthAdjust="spacing" textLength="6" x="446.7608" y="870.1704">*</text></g><!--reverse link ConcertTicketBookingSystem to Concert--><g id="link_ConcertTicketBookingSystem_Concert"><path codeLine="122" d="M486.18,242.16 C486.18,396.09 486.18,642.48 486.18,642.48 C486.18,642.48 479.57,642.48 469.4,642.48 " fill="none" id="ConcertTicketBookingSystem-backto-Concert" style="stroke:#FB8C00;stroke-width:1.3;"/><polygon fill="none" points="486.18,230.16,482.18,236.16,486.18,242.16,490.18,236.16,486.18,230.16" style="stroke:#FB8C00;stroke-width:1.3;"/><text fill="#475569" font-family="sans-serif" font-size="12" lengthAdjust="spacing" textLength="51.416" x="434.18" y="441.8487">concerts</text><text fill="#475569" font-family="sans-serif" font-size="12" lengthAdjust="spacing" textLength="6" x="477.0464" y="634.8784">*</text></g><!--reverse link ConcertTicketBookingSystem to Booking--><g id="link_ConcertTicketBookingSystem_Booking"><path codeLine="123" d="M663.65,241.97 C663.65,264.45 663.65,276.25 663.65,299.25 " fill="none" id="ConcertTicketBookingSystem-backto-Booking" style="stroke:#FB8C00;stroke-width:1.3;"/><polygon fill="none" points="663.65,229.97,659.65,235.97,663.65,241.97,667.65,235.97,663.65,229.97" style="stroke:#FB8C00;stroke-width:1.3;"/><text fill="#475569" font-family="sans-serif" font-size="12" lengthAdjust="spacing" textLength="54.0586" x="608.65" y="261.7487">bookings</text><text fill="#475569" font-family="sans-serif" font-size="12" lengthAdjust="spacing" textLength="6" x="657.4579" y="288.7876">*</text></g><!--link ConcertTicketBookingSystem to User--><g id="link_ConcertTicketBookingSystem_User"><path codeLine="124" d="M827.65,230.12 C827.65,365.68 827.65,581.27 827.65,671.73 " fill="none" id="ConcertTicketBookingSystem-to-User" style="stroke:#90A4AE;stroke-width:1.3;stroke-dasharray:7.0,7.0;"/><polygon fill="#90A4AE" points="827.65,677.73,831.65,668.73,827.65,672.73,823.65,668.73,827.65,677.73" style="stroke:#90A4AE;stroke-width:1.3;"/></g><!--link ConcertTicketBookingSystem to Seat--><g id="link_ConcertTicketBookingSystem_Seat"><path codeLine="125" d="M495.55,229.8 C495.55,398.07 495.55,708.92 495.55,874.62 " fill="none" id="ConcertTicketBookingSystem-to-Seat" style="stroke:#90A4AE;stroke-width:1.3;stroke-dasharray:7.0,7.0;"/><polygon fill="#90A4AE" points="495.55,880.62,499.55,871.62,495.55,875.62,491.55,871.62,495.55,880.62" style="stroke:#90A4AE;stroke-width:1.3;"/></g><!--link ConcertTicketBookingSystemDemo to Seat--><g id="link_ConcertTicketBookingSystemDemo_Seat"><path codeLine="126" d="M398.75,427.48 C440.85,427.48 472.97,427.48 472.97,427.48 C472.97,427.48 472.97,712.1 472.97,874.73 " fill="none" id="ConcertTicketBookingSystemDemo-to-Seat" style="stroke:#90A4AE;stroke-width:1.3;stroke-dasharray:7.0,7.0;"/><polygon fill="#90A4AE" points="472.97,880.73,476.97,871.73,472.97,875.73,468.97,871.73,472.97,880.73" style="stroke:#90A4AE;stroke-width:1.3;"/></g><!--link ConcertTicketBookingSystemDemo to Concert--><g id="link_ConcertTicketBookingSystemDemo_Concert"><path codeLine="127" d="M328.24,467.9 C328.24,508.3 328.24,565.85 328.24,618.79 " fill="none" id="ConcertTicketBookingSystemDemo-to-Concert" style="stroke:#90A4AE;stroke-width:1.3;stroke-dasharray:7.0,7.0;"/><polygon fill="#90A4AE" points="328.24,624.79,332.24,615.79,328.24,619.79,324.24,615.79,328.24,624.79" style="stroke:#90A4AE;stroke-width:1.3;"/></g><!--reverse link Seat to SeatType--><g id="link_Seat_SeatType"><path codeLine="128" d="M593.26,1106.87 C593.26,1131.62 593.26,1144.45 593.26,1164.22 " fill="none" id="Seat-backto-SeatType" style="stroke:#FB8C00;stroke-width:1.3;"/><polygon fill="none" points="593.26,1094.87,589.26,1100.87,593.26,1106.87,597.26,1100.87,593.26,1094.87" style="stroke:#FB8C00;stroke-width:1.3;"/><text fill="#475569" font-family="sans-serif" font-size="12" lengthAdjust="spacing" textLength="55.125" x="537.26" y="1126.6787">seatType</text></g><!--link Seat to SeatStatus--><g id="link_Seat_SeatStatus"><path codeLine="129" d="M482.83,1094.87 C482.83,1119.62 482.83,1138.45 482.83,1158.22 " fill="none" id="Seat-to-SeatStatus" style="stroke:#546E7A;stroke-width:1.3;"/><polygon fill="#546E7A" points="482.83,1164.22,486.83,1155.22,482.83,1159.22,478.83,1155.22,482.83,1164.22" style="stroke:#546E7A;stroke-width:1.3;"/><text fill="#475569" font-family="sans-serif" font-size="12" lengthAdjust="spacing" textLength="36.873" x="445.83" y="1126.6787">status</text></g><!--SRC=[hLRTR-8u47_dhx2MbzuLJj12Mr1LAK2oGaUX8crVLljW4bDy93QodUvng_xlvwy49uIsA-qJyMzcFB_vy0nyYyaECfY2U8V1uAh12s05e-qBenc9npIX33G3BnW5OqU3Rs1CVs3o0jOmuSYHM3D640FT2qSG9P1pJmY6Lvb0quYI4F-7GCTHYT4QPea8A15pc28GGi93nF2wNaVRToyTOO894liT0fI93NK4XCQ8entezLsga6mLUDsfqWG_6m1e5sAV8B2YIMm1cv1EqBs-y2HM1EG8BozxtNw_AZHiBoGS2iGGLJmTewl9nSraq7Xpg7YCqH-F6nnj2PASkdzTLeMEVU-wtxyQr2daZZSuHW2bEx47AKfNYF56mqGxedIhQjdqny4aw8DciziP3MwwEWrjW6CmbAIPLD7dZClQ3i6J_D5dMSe8CI6XiVdIA4TGS8dDC1UteJpSQLXG0PC7XYCaPJ7DLWaowWAAJEbRCg4-c_jX4cK95EYni3txmxK-LnJMcANMLajVAOwD34fIIQte1ObfhA4YF0sgq3HiOzIW3KxZXq2rI8N7jQ0KhPQT9gqCTPHQK8xxhT5094lBg7o8WJ-Pg0BvNl-cCzO5EWS_LV9mz0OU_FbaElzQ1iUBUJ1TtlkJ2kpDn_vi9k6tl0ziL9_j0yY4ZBQClKhMg0p5gd8uLUYCobfExFbqbvmkZATTrWYUbTyQF7TcYbDnVxfsrPGyoaU8H5wCFHSe1RUteJmaI51oTtSgPqMwCP5VH7VzwJlTvwIoSWztjoQUbZKoZsXbZ2egzYgZaj1eAyMBrJye4kNAg-HQDcupr_Cv1p2EyzRF6yHIhBwbNCtmoRMcSVN5oAApQ6CHdgkRTchP0ffEQfLhLlHIKIudBUSwBIOAVgPUhfvKBL1XtN8ARVhFUNur4yFoiJatqTYess37Q2I7ymFSfuY8itoIMkMIwWkIEr7o7-KNkUtwYOQRe9JMjvbJMvQHiv9Nf-h6lUbtJ0IGyqLkWSKwp7DG6TM5AKU9R29ZU9JCZsug8bF7puuMLPQvllGOVrGBVgYlKv-s3ASNYb8ijebfal8MO38yoD7HQZWrj6idKrWmFY5KN8teGBow0nogfRJDgV1U8KwWPE7_6w6Tm9JKvJ9V6uUBFjmPthCtdNcZcL-6Hul5tzMLiVH3V_biDaRXHfVZ8oTB_-lJp5jMjjNIlvy-tPV1v-d38NRzY3_PCWIcbSM3KfcoqXFBdoTjVsi6evjnf_EzRPmCzQoeLnWN_sziqzUhVVdpY-dnePagXPPKwlUk_6llU_kkij27jaqRkO_tRtnd6nqP7h7-DVES_B1ODk-PI-j1n-jvVYk6V8DY5Qd-x_IBDYhQnWSZy7VQvLj9PxcKW_0mQVAXOxHArNJUMLxA_m40]--></g></svg>