<svg xmlns="http://www.w3.org/2000/svg" xmlns:xlink="http://www.w3.org/1999/xlink" contentStyleType="text/css" height="1123px" preserveAspectRatio="none" style="width:2370px;height:1123px;background:#FAFBFC;" version="1.1" viewBox="0 0 2370 1123" width="2370px" zoomAndPan="magnify"><defs/><g><rect fill="#FAFBFC" height="1123" style="stroke:none;stroke-width:1.0;" width="2370" x="0" y="0"/><!--class IntersectionController--><g id="elem_IntersectionController"><rect codeLine="23" fill="#ECFDF5" height="250.6641" id="IntersectionController" rx="6" ry="6" style="stroke:#10B981;stroke-width:0.5;" width="271.8281" x="1322.38" y="229.89"/><ellipse cx="1379.4904" cy="249.4408" fill="#ADD1B2" rx="10" ry="10" style="stroke:#181818;stroke-width:1.0;"/><path d="M1381.3497,253.6752 Q1380.9122,253.8939 1380.4122,254.0033 Q1379.9279,254.1283 1379.3966,254.1283 Q1377.4747,254.1283 1376.4591,252.8627 Q1375.4591,251.597 1375.4591,249.2064 Q1375.4591,246.8158 1376.4591,245.5502 Q1377.4747,244.2845 1379.3966,244.2845 Q1379.9279,244.2845 1380.4279,244.4095 Q1380.9279,244.5189 1381.3497,244.7533 L1381.3497,246.8314 Q1380.8654,246.3939 1380.4122,246.1908 Q1379.9591,245.972 1379.4747,245.972 Q1378.4591,245.972 1377.9279,246.8002 Q1377.3966,247.6127 1377.3966,249.2064 Q1377.3966,250.8158 1377.9279,251.6283 Q1378.4591,252.4408 1379.4747,252.4408 Q1379.9591,252.4408 1380.4122,252.2377 Q1380.8654,252.0345 1381.3497,251.5814 L1381.3497,253.6752 Z " fill="#000000"/><text fill="#6D28D9" font-family="sans-serif" font-size="13" font-style="italic" lengthAdjust="spacing" textLength="50.4575" x="1448.0653" y="246.9569">&#171;State&#187;</text><text fill="#334155" font-family="sans-serif" font-size="12" font-weight="bold" lengthAdjust="spacing" textLength="149.6074" x="1398.4904" y="261.1615">IntersectionController</text><line style="stroke:#10B981;stroke-width:0.5;" x1="1323.38" x2="1593.2081" y1="268.9916" y2="268.9916"/><text fill="#334155" font-family="sans-serif" font-size="12" lengthAdjust="spacing" textLength="42.5977" x="1328.38" y="284.1302">-id : int</text><text fill="#334155" font-family="sans-serif" font-size="12" lengthAdjust="spacing" textLength="259.2422" x="1328.38" y="298.099">-trafficLights : Map&lt;Direction,TrafficLight&gt;</text><text fill="#334155" font-family="sans-serif" font-size="12" lengthAdjust="spacing" textLength="194.6777" x="1328.38" y="312.0677">-currentState : IntersectionState</text><text fill="#334155" font-family="sans-serif" font-size="12" lengthAdjust="spacing" textLength="128.9414" x="1328.38" y="326.0365">-greenDuration : long</text><text fill="#334155" font-family="sans-serif" font-size="12" lengthAdjust="spacing" textLength="132.3281" x="1328.38" y="340.0052">-yellowDuration : long</text><text fill="#334155" font-family="sans-serif" font-size="12" lengthAdjust="spacing" textLength="110.2852" x="1328.38" y="353.974">-running : boolean</text><line style="stroke:#10B981;stroke-width:0.5;" x1="1323.38" x2="1593.2081" y1="360.8041" y2="360.8041"/><text fill="#334155" font-family="sans-serif" font-size="12" lengthAdjust="spacing" textLength="77.5957" x="1328.38" y="375.9427">+getId() : int</text><text fill="#334155" font-family="sans-serif" font-size="12" lengthAdjust="spacing" textLength="165.416" x="1328.38" y="389.9115">+getGreenDuration() : long</text><text fill="#334155" font-family="sans-serif" font-size="12" lengthAdjust="spacing" textLength="167.3496" x="1328.38" y="403.8802">+getYellowDuration() : long</text><text fill="#334155" font-family="sans-serif" font-size="12" lengthAdjust="spacing" textLength="259.8281" x="1328.38" y="417.849">+getLight(Direction direction) : TrafficLight</text><text fill="#334155" font-family="sans-serif" font-size="12" lengthAdjust="spacing" textLength="243.9492" x="1328.38" y="431.8177">+setState(IntersectionState state) : void</text><text fill="#334155" font-family="sans-serif" font-size="12" lengthAdjust="spacing" textLength="84.4336" x="1328.38" y="445.7865">+start() : void</text><text fill="#334155" font-family="sans-serif" font-size="12" lengthAdjust="spacing" textLength="82.4004" x="1328.38" y="459.7552">+stop() : void</text><text fill="#334155" font-family="sans-serif" font-size="12" lengthAdjust="spacing" textLength="76.6289" x="1328.38" y="473.724">+run() : void</text></g><!--class Builder--><g id="elem_Builder"><rect codeLine="40" fill="#ECFDF5" height="152.8828" id="Builder" rx="6" ry="6" style="stroke:#10B981;stroke-width:0.5;" width="312.9727" x="622.8" y="7"/><ellipse cx="746.2749" cy="26.5508" fill="#ADD1B2" rx="10" ry="10" style="stroke:#181818;stroke-width:1.0;"/><path d="M748.1342,30.7852 Q747.6967,31.0039 747.1967,31.1133 Q746.7124,31.2383 746.1811,31.2383 Q744.2592,31.2383 743.2436,29.9727 Q742.2436,28.707 742.2436,26.3164 Q742.2436,23.9258 743.2436,22.6602 Q744.2592,21.3945 746.1811,21.3945 Q746.7124,21.3945 747.2124,21.5195 Q747.7124,21.6289 748.1342,21.8633 L748.1342,23.9414 Q747.6499,23.5039 747.1967,23.3008 Q746.7436,23.082 746.2592,23.082 Q745.2436,23.082 744.7124,23.9102 Q744.1811,24.7227 744.1811,26.3164 Q744.1811,27.9258 744.7124,28.7383 Q745.2436,29.5508 746.2592,29.5508 Q746.7436,29.5508 747.1967,29.3477 Q747.6499,29.1445 748.1342,28.6914 L748.1342,30.7852 Z " fill="#000000"/><text fill="#6D28D9" font-family="sans-serif" font-size="13" font-style="italic" lengthAdjust="spacing" textLength="62.0229" x="763.2749" y="24.0669">&#171;Builder&#187;</text><text fill="#334155" font-family="sans-serif" font-size="12" font-weight="bold" lengthAdjust="spacing" textLength="48.5625" x="770.0051" y="38.2715">Builder</text><line style="stroke:#10B981;stroke-width:0.5;" x1="623.8" x2="934.7727" y1="46.1016" y2="46.1016"/><text fill="#334155" font-family="sans-serif" font-size="12" lengthAdjust="spacing" textLength="42.5977" x="628.8" y="61.2402">-id : int</text><text fill="#334155" font-family="sans-serif" font-size="12" lengthAdjust="spacing" textLength="128.9414" x="628.8" y="75.209">-greenDuration : long</text><text fill="#334155" font-family="sans-serif" font-size="12" lengthAdjust="spacing" textLength="132.3281" x="628.8" y="89.1777">-yellowDuration : long</text><text fill="#334155" font-family="sans-serif" font-size="12" lengthAdjust="spacing" textLength="209.332" x="628.8" y="103.1465">-observers : List&lt;TrafficObserver&gt;</text><line style="stroke:#10B981;stroke-width:0.5;" x1="623.8" x2="934.7727" y1="109.9766" y2="109.9766"/><text fill="#334155" font-family="sans-serif" font-size="12" lengthAdjust="spacing" textLength="297.6445" x="628.8" y="125.1152">+withDurations(long green, long yellow) : Builder</text><text fill="#334155" font-family="sans-serif" font-size="12" lengthAdjust="spacing" textLength="300.9727" x="628.8" y="139.084">+addObserver(TrafficObserver observer) : Builder</text><text fill="#334155" font-family="sans-serif" font-size="12" lengthAdjust="spacing" textLength="191.2734" x="628.8" y="153.0527">+build() : IntersectionController</text></g><!--class TrafficControlSystem--><g id="elem_TrafficControlSystem"><rect codeLine="50" fill="#ECFDF5" height="152.8828" id="TrafficControlSystem" rx="6" ry="6" style="stroke:#10B981;stroke-width:0.5;" width="495.8965" x="980.34" y="7"/><ellipse cx="1152.5578" cy="26.5508" fill="#ADD1B2" rx="10" ry="10" style="stroke:#181818;stroke-width:1.0;"/><path d="M1154.4171,30.7852 Q1153.9796,31.0039 1153.4796,31.1133 Q1152.9953,31.2383 1152.464,31.2383 Q1150.5421,31.2383 1149.5265,29.9727 Q1148.5265,28.707 1148.5265,26.3164 Q1148.5265,23.9258 1149.5265,22.6602 Q1150.5421,21.3945 1152.464,21.3945 Q1152.9953,21.3945 1153.4953,21.5195 Q1153.9953,21.6289 1154.4171,21.8633 L1154.4171,23.9414 Q1153.9328,23.5039 1153.4796,23.3008 Q1153.0265,23.082 1152.5421,23.082 Q1151.5265,23.082 1150.9953,23.9102 Q1150.464,24.7227 1150.464,26.3164 Q1150.464,27.9258 1150.9953,28.7383 Q1151.5265,29.5508 1152.5421,29.5508 Q1153.0265,29.5508 1153.4796,29.3477 Q1153.9328,29.1445 1154.4171,28.6914 L1154.4171,30.7852 Z " fill="#000000"/><text fill="#6D28D9" font-family="sans-serif" font-size="13" font-style="italic" lengthAdjust="spacing" textLength="77.3018" x="1204.6374" y="24.0669">&#171;Singleton&#187;</text><text fill="#334155" font-family="sans-serif" font-size="12" font-weight="bold" lengthAdjust="spacing" textLength="143.4609" x="1171.5578" y="38.2715">TrafficControlSystem</text><line style="stroke:#10B981;stroke-width:0.5;" x1="981.34" x2="1475.2365" y1="46.1016" y2="46.1016"/><text fill="#334155" font-family="sans-serif" font-size="12" lengthAdjust="spacing" text-decoration="underline" textLength="202.998" x="986.34" y="61.2402">-INSTANCE : TrafficControlSystem</text><text fill="#334155" font-family="sans-serif" font-size="12" lengthAdjust="spacing" textLength="265.1953" x="986.34" y="75.209">-intersections : List&lt;IntersectionController&gt;</text><text fill="#334155" font-family="sans-serif" font-size="12" lengthAdjust="spacing" textLength="211.002" x="986.34" y="89.1777">-executorService : ExecutorService</text><line style="stroke:#10B981;stroke-width:0.5;" x1="981.34" x2="1475.2365" y1="96.0078" y2="96.0078"/><text fill="#334155" font-family="sans-serif" font-size="12" lengthAdjust="spacing" text-decoration="underline" textLength="228.2227" x="986.34" y="111.1465">+getInstance() : TrafficControlSystem</text><text fill="#334155" font-family="sans-serif" font-size="12" lengthAdjust="spacing" textLength="483.8965" x="986.34" y="125.1152">+addIntersection(int intersectionId, int greenDuration, int yellowDuration) : void</text><text fill="#334155" font-family="sans-serif" font-size="12" lengthAdjust="spacing" textLength="129.1816" x="986.34" y="139.084">+startSystem() : void</text><text fill="#334155" font-family="sans-serif" font-size="12" lengthAdjust="spacing" textLength="127.1484" x="986.34" y="153.0527">+stopSystem() : void</text></g><!--class TrafficLight--><g id="elem_TrafficLight"><rect codeLine="60" fill="#ECFDF5" height="279.7656" id="TrafficLight" rx="6" ry="6" style="stroke:#10B981;stroke-width:0.5;" width="319.1719" x="453.71" y="550.55"/><ellipse cx="570.0469" cy="577.6672" fill="#ADD1B2" rx="10" ry="10" style="stroke:#181818;stroke-width:1.0;"/><path d="M571.9063,581.9016 Q571.4688,582.1203 570.9688,582.2297 Q570.4844,582.3547 569.9532,582.3547 Q568.0313,582.3547 567.0157,581.0891 Q566.0157,579.8234 566.0157,577.4328 Q566.0157,575.0422 567.0157,573.7766 Q568.0313,572.5109 569.9532,572.5109 Q570.4844,572.5109 570.9844,572.6359 Q571.4844,572.7453 571.9063,572.9797 L571.9063,575.0578 Q571.4219,574.6203 570.9688,574.4172 Q570.5157,574.1984 570.0313,574.1984 Q569.0157,574.1984 568.4844,575.0266 Q567.9532,575.8391 567.9532,577.4328 Q567.9532,579.0422 568.4844,579.8547 Q569.0157,580.6672 570.0313,580.6672 Q570.5157,580.6672 570.9688,580.4641 Q571.4219,580.2609 571.9063,579.8078 L571.9063,581.9016 Z " fill="#000000"/><text fill="#6D28D9" font-family="sans-serif" font-size="13" font-style="italic" lengthAdjust="spacing" textLength="75.6831" x="590.4544" y="567.6169">&#171;Observer&#187;</text><text fill="#6D28D9" font-family="sans-serif" font-size="13" font-style="italic" lengthAdjust="spacing" textLength="50.4575" x="603.0672" y="582.7497">&#171;State&#187;</text><text fill="#334155" font-family="sans-serif" font-size="12" font-weight="bold" lengthAdjust="spacing" textLength="78.498" x="589.0469" y="596.9543">TrafficLight</text><line style="stroke:#10B981;stroke-width:0.5;" x1="454.71" x2="771.8819" y1="604.7844" y2="604.7844"/><text fill="#334155" font-family="sans-serif" font-size="12" lengthAdjust="spacing" textLength="123.3281" x="459.71" y="619.923">-direction : Direction</text><text fill="#334155" font-family="sans-serif" font-size="12" lengthAdjust="spacing" textLength="152.373" x="459.71" y="633.8918">-currentColor : LightColor</text><text fill="#334155" font-family="sans-serif" font-size="12" lengthAdjust="spacing" textLength="160.1543" x="459.71" y="647.8605">-currentState : SignalState</text><text fill="#334155" font-family="sans-serif" font-size="12" lengthAdjust="spacing" textLength="143.1855" x="459.71" y="661.8293">-nextState : SignalState</text><text fill="#334155" font-family="sans-serif" font-size="12" lengthAdjust="spacing" textLength="209.332" x="459.71" y="675.798">-observers : List&lt;TrafficObserver&gt;</text><text fill="#334155" font-family="sans-serif" font-size="12" lengthAdjust="spacing" textLength="113.9824" x="459.71" y="689.7668">-intersectionId : int</text><line style="stroke:#10B981;stroke-width:0.5;" x1="454.71" x2="771.8819" y1="696.5969" y2="696.5969"/><text fill="#334155" font-family="sans-serif" font-size="12" lengthAdjust="spacing" textLength="121.0371" x="459.71" y="711.7355">+startGreen() : void</text><text fill="#334155" font-family="sans-serif" font-size="12" lengthAdjust="spacing" textLength="113.6543" x="459.71" y="725.7043">+transition() : void</text><text fill="#334155" font-family="sans-serif" font-size="12" lengthAdjust="spacing" textLength="200.7949" x="459.71" y="739.673">+setColor(LightColor color) : void</text><text fill="#334155" font-family="sans-serif" font-size="12" lengthAdjust="spacing" textLength="237.5918" x="459.71" y="753.6418">+setNextState(SignalState state) : void</text><text fill="#334155" font-family="sans-serif" font-size="12" lengthAdjust="spacing" textLength="188.9473" x="459.71" y="767.6105">+getCurrentColor() : LightColor</text><text fill="#334155" font-family="sans-serif" font-size="12" lengthAdjust="spacing" textLength="159.7441" x="459.71" y="781.5793">+getDirection() : Direction</text><text fill="#334155" font-family="sans-serif" font-size="12" lengthAdjust="spacing" textLength="283.9277" x="459.71" y="795.548">+addObserver(TrafficObserver observer) : void</text><text fill="#334155" font-family="sans-serif" font-size="12" lengthAdjust="spacing" textLength="307.1719" x="459.71" y="809.5168">+removeObserver(TrafficObserver observer) : void</text><text fill="#334155" font-family="sans-serif" font-size="12" lengthAdjust="spacing" textLength="146.373" x="459.71" y="823.4855">-notifyObservers() : void</text></g><!--class TrafficSystemDemo--><g id="elem_TrafficSystemDemo"><rect codeLine="78" fill="#ECFDF5" height="51.9688" id="TrafficSystemDemo" rx="6" ry="6" style="stroke:#10B981;stroke-width:0.5;" width="173.6133" x="2189.48" y="57.46"/><ellipse cx="2208.3896" cy="72.46" fill="#ADD1B2" rx="10" ry="10" style="stroke:#181818;stroke-width:1.0;"/><path d="M2210.2489,76.6944 Q2209.8114,76.9131 2209.3114,77.0225 Q2208.8271,77.1475 2208.2958,77.1475 Q2206.3739,77.1475 2205.3583,75.8819 Q2204.3583,74.6163 2204.3583,72.2256 Q2204.3583,69.835 2205.3583,68.5694 Q2206.3739,67.3038 2208.2958,67.3038 Q2208.8271,67.3038 2209.3271,67.4288 Q2209.8271,67.5381 2210.2489,67.7725 L2210.2489,69.8506 Q2209.7646,69.4131 2209.3114,69.21 Q2208.8583,68.9913 2208.3739,68.9913 Q2207.3583,68.9913 2206.8271,69.8194 Q2206.2958,70.6319 2206.2958,72.2256 Q2206.2958,73.835 2206.8271,74.6475 Q2207.3583,75.46 2208.3739,75.46 Q2208.8583,75.46 2209.3114,75.2569 Q2209.7646,75.0538 2210.2489,74.6006 L2210.2489,76.6944 Z " fill="#000000"/><text fill="#334155" font-family="sans-serif" font-size="12" font-weight="bold" lengthAdjust="spacing" textLength="132.7031" x="2222.4806" y="76.6143">TrafficSystemDemo</text><line style="stroke:#10B981;stroke-width:0.5;" x1="2190.48" x2="2362.0933" y1="87.46" y2="87.46"/><text fill="#334155" font-family="sans-serif" font-size="12" lengthAdjust="spacing" text-decoration="underline" textLength="161.6133" x="2195.48" y="102.5987">+main(String[] args) : void</text></g><!--class Direction--><g id="elem_Direction"><rect codeLine="82" fill="#FFEDD5" height="93.875" id="Direction" rx="6" ry="6" style="stroke:#EA580C;stroke-width:0.5;" width="91.8809" x="1110.35" y="1022.29"/><ellipse cx="1124.35" cy="1037.29" fill="#EB937F" rx="10" ry="10" style="stroke:#181818;stroke-width:1.0;"/><path d="M1126.8188,1041.79 L1120.9125,1041.79 L1120.9125,1032.3056 L1126.8188,1032.3056 L1126.8188,1033.9619 L1122.7875,1033.9619 L1122.7875,1036.0088 L1126.4438,1036.0088 L1126.4438,1037.665 L1122.7875,1037.665 L1122.7875,1040.1338 L1126.8188,1040.1338 L1126.8188,1041.79 Z " fill="#000000"/><text fill="#334155" font-family="sans-serif" font-size="12" font-weight="bold" lengthAdjust="spacing" textLength="61.8809" x="1137.35" y="1041.4443">Direction</text><line style="stroke:#EA580C;stroke-width:0.5;" x1="1111.35" x2="1201.2309" y1="1052.29" y2="1052.29"/><text fill="#334155" font-family="sans-serif" font-size="12" lengthAdjust="spacing" text-decoration="underline" textLength="53.168" x="1116.35" y="1067.4287">+NORTH</text><text fill="#334155" font-family="sans-serif" font-size="12" lengthAdjust="spacing" text-decoration="underline" textLength="52.2539" x="1116.35" y="1081.3974">+SOUTH</text><text fill="#334155" font-family="sans-serif" font-size="12" lengthAdjust="spacing" text-decoration="underline" textLength="40.793" x="1116.35" y="1095.3662">+EAST</text><text fill="#334155" font-family="sans-serif" font-size="12" lengthAdjust="spacing" text-decoration="underline" textLength="44.4492" x="1116.35" y="1109.3349">+WEST</text></g><!--class LightColor--><g id="elem_LightColor"><rect codeLine="89" fill="#FFEDD5" height="79.9063" id="LightColor" rx="6" ry="6" style="stroke:#EA580C;stroke-width:0.5;" width="99.9551" x="848.31" y="1029.27"/><ellipse cx="862.31" cy="1044.27" fill="#EB937F" rx="10" ry="10" style="stroke:#181818;stroke-width:1.0;"/><path d="M864.7788,1048.77 L858.8725,1048.77 L858.8725,1039.2856 L864.7788,1039.2856 L864.7788,1040.9419 L860.7475,1040.9419 L860.7475,1042.9888 L864.4038,1042.9888 L864.4038,1044.645 L860.7475,1044.645 L860.7475,1047.1138 L864.7788,1047.1138 L864.7788,1048.77 Z " fill="#000000"/><text fill="#334155" font-family="sans-serif" font-size="12" font-weight="bold" lengthAdjust="spacing" textLength="69.9551" x="875.31" y="1048.4243">LightColor</text><line style="stroke:#EA580C;stroke-width:0.5;" x1="849.31" x2="947.2651" y1="1059.27" y2="1059.27"/><text fill="#334155" font-family="sans-serif" font-size="12" lengthAdjust="spacing" text-decoration="underline" textLength="51.832" x="854.31" y="1074.4087">+GREEN</text><text fill="#334155" font-family="sans-serif" font-size="12" lengthAdjust="spacing" text-decoration="underline" textLength="59.6484" x="854.31" y="1088.3774">+YELLOW</text><text fill="#334155" font-family="sans-serif" font-size="12" lengthAdjust="spacing" text-decoration="underline" textLength="35.2148" x="854.31" y="1102.3462">+RED</text></g><!--class CentralMonitor--><g id="elem_CentralMonitor"><rect codeLine="95" fill="#ECFDF5" height="51.9688" id="CentralMonitor" rx="6" ry="6" style="stroke:#10B981;stroke-width:0.5;" width="433.5996" x="951.49" y="664.45"/><ellipse cx="1113.2429" cy="679.45" fill="#ADD1B2" rx="10" ry="10" style="stroke:#181818;stroke-width:1.0;"/><path d="M1115.1023,683.6844 Q1114.6648,683.9031 1114.1648,684.0125 Q1113.6804,684.1375 1113.1492,684.1375 Q1111.2273,684.1375 1110.2117,682.8719 Q1109.2117,681.6063 1109.2117,679.2156 Q1109.2117,676.825 1110.2117,675.5594 Q1111.2273,674.2938 1113.1492,674.2938 Q1113.6804,674.2938 1114.1804,674.4188 Q1114.6804,674.5281 1115.1023,674.7625 L1115.1023,676.8406 Q1114.6179,676.4031 1114.1648,676.2 Q1113.7117,675.9813 1113.2273,675.9813 Q1112.2117,675.9813 1111.6804,676.8094 Q1111.1492,677.6219 1111.1492,679.2156 Q1111.1492,680.825 1111.6804,681.6375 Q1112.2117,682.45 1113.2273,682.45 Q1113.7117,682.45 1114.1648,682.2469 Q1114.6179,682.0438 1115.1023,681.5906 L1115.1023,683.6844 Z " fill="#000000"/><text fill="#334155" font-family="sans-serif" font-size="12" font-weight="bold" lengthAdjust="spacing" textLength="102.0938" x="1132.2429" y="683.6043">CentralMonitor</text><line style="stroke:#10B981;stroke-width:0.5;" x1="952.49" x2="1384.0896" y1="694.45" y2="694.45"/><text fill="#334155" font-family="sans-serif" font-size="12" lengthAdjust="spacing" textLength="421.5996" x="957.49" y="709.5887">+update(int intersectionId, Direction direction, LightColor color) : void</text></g><!--class TrafficObserver--><g id="elem_TrafficObserver"><rect codeLine="99" fill="#DBEAFE" height="51.9688" id="TrafficObserver" rx="6" ry="6" style="stroke:#2563EB;stroke-width:0.5;" width="433.5996" x="681.49" y="900.32"/><ellipse cx="841.4207" cy="915.32" fill="#B4A7E5" rx="10" ry="10" style="stroke:#181818;stroke-width:1.0;"/><path d="M838.5144,911.9919 L838.5144,910.3356 L844.155,910.3356 L844.155,911.9919 L842.2644,911.9919 L842.2644,918.1638 L844.155,918.1638 L844.155,919.82 L838.5144,919.82 L838.5144,918.1638 L840.405,918.1638 L840.405,911.9919 L838.5144,911.9919 Z " fill="#000000"/><text fill="#334155" font-family="sans-serif" font-size="12" font-style="italic" font-weight="bold" lengthAdjust="spacing" textLength="105.7383" x="860.4207" y="919.4743">TrafficObserver</text><line style="stroke:#2563EB;stroke-width:0.5;" x1="682.49" x2="1114.0896" y1="930.32" y2="930.32"/><text fill="#334155" font-family="sans-serif" font-size="12" lengthAdjust="spacing" textLength="421.5996" x="687.49" y="945.4587">+update(int intersectionId, Direction direction, LightColor color) : void</text></g><!--class EastWestGreenState--><g id="elem_EastWestGreenState"><rect codeLine="103" fill="#ECFDF5" height="51.9688" id="EastWestGreenState" rx="6" ry="6" style="stroke:#10B981;stroke-width:0.5;" width="289.3125" x="1855.63" y="57.46"/><ellipse cx="1926.1027" cy="72.46" fill="#ADD1B2" rx="10" ry="10" style="stroke:#181818;stroke-width:1.0;"/><path d="M1927.962,76.6944 Q1927.5245,76.9131 1927.0245,77.0225 Q1926.5402,77.1475 1926.0089,77.1475 Q1924.087,77.1475 1923.0714,75.8819 Q1922.0714,74.6163 1922.0714,72.2256 Q1922.0714,69.835 1923.0714,68.5694 Q1924.087,67.3038 1926.0089,67.3038 Q1926.5402,67.3038 1927.0402,67.4288 Q1927.5402,67.5381 1927.962,67.7725 L1927.962,69.8506 Q1927.4777,69.4131 1927.0245,69.21 Q1926.5714,68.9913 1926.087,68.9913 Q1925.0714,68.9913 1924.5402,69.8194 Q1924.0089,70.6319 1924.0089,72.2256 Q1924.0089,73.835 1924.5402,74.6475 Q1925.0714,75.46 1926.087,75.46 Q1926.5714,75.46 1927.0245,75.2569 Q1927.4777,75.0538 1927.962,74.6006 L1927.962,76.6944 Z " fill="#000000"/><text fill="#334155" font-family="sans-serif" font-size="12" font-weight="bold" lengthAdjust="spacing" textLength="140.3672" x="1945.1027" y="76.6143">EastWestGreenState</text><line style="stroke:#10B981;stroke-width:0.5;" x1="1856.63" x2="2143.9425" y1="87.46" y2="87.46"/><text fill="#334155" font-family="sans-serif" font-size="12" lengthAdjust="spacing" textLength="277.3125" x="1861.63" y="102.5987">+handle(IntersectionController context) : void</text></g><!--class IntersectionState--><g id="elem_IntersectionState"><rect codeLine="107" fill="#DBEAFE" height="51.9688" id="IntersectionState" rx="6" ry="6" style="stroke:#2563EB;stroke-width:0.5;" width="289.3125" x="1521.63" y="664.45"/><ellipse cx="1603.1945" cy="679.45" fill="#B4A7E5" rx="10" ry="10" style="stroke:#181818;stroke-width:1.0;"/><path d="M1600.2882,676.1219 L1600.2882,674.4656 L1605.9288,674.4656 L1605.9288,676.1219 L1604.0382,676.1219 L1604.0382,682.2938 L1605.9288,682.2938 L1605.9288,683.95 L1600.2882,683.95 L1600.2882,682.2938 L1602.1788,682.2938 L1602.1788,676.1219 L1600.2882,676.1219 Z " fill="#000000"/><text fill="#334155" font-family="sans-serif" font-size="12" font-style="italic" font-weight="bold" lengthAdjust="spacing" textLength="118.1836" x="1622.1945" y="683.6043">IntersectionState</text><line style="stroke:#2563EB;stroke-width:0.5;" x1="1522.63" x2="1809.9425" y1="694.45" y2="694.45"/><text fill="#334155" font-family="sans-serif" font-size="12" lengthAdjust="spacing" textLength="277.3125" x="1527.63" y="709.5887">+handle(IntersectionController context) : void</text></g><!--class NorthSouthGreenState--><g id="elem_NorthSouthGreenState"><rect codeLine="111" fill="#ECFDF5" height="51.9688" id="NorthSouthGreenState" rx="6" ry="6" style="stroke:#10B981;stroke-width:0.5;" width="289.3125" x="1521.63" y="57.46"/><ellipse cx="1584.7198" cy="72.46" fill="#ADD1B2" rx="10" ry="10" style="stroke:#181818;stroke-width:1.0;"/><path d="M1586.5792,76.6944 Q1586.1417,76.9131 1585.6417,77.0225 Q1585.1573,77.1475 1584.6261,77.1475 Q1582.7042,77.1475 1581.6886,75.8819 Q1580.6886,74.6163 1580.6886,72.2256 Q1580.6886,69.835 1581.6886,68.5694 Q1582.7042,67.3038 1584.6261,67.3038 Q1585.1573,67.3038 1585.6573,67.4288 Q1586.1573,67.5381 1586.5792,67.7725 L1586.5792,69.8506 Q1586.0948,69.4131 1585.6417,69.21 Q1585.1886,68.9913 1584.7042,68.9913 Q1583.6886,68.9913 1583.1573,69.8194 Q1582.6261,70.6319 1582.6261,72.2256 Q1582.6261,73.835 1583.1573,74.6475 Q1583.6886,75.46 1584.7042,75.46 Q1585.1886,75.46 1585.6417,75.2569 Q1586.0948,75.0538 1586.5792,74.6006 L1586.5792,76.6944 Z " fill="#000000"/><text fill="#334155" font-family="sans-serif" font-size="12" font-weight="bold" lengthAdjust="spacing" textLength="155.1328" x="1603.7198" y="76.6143">NorthSouthGreenState</text><line style="stroke:#10B981;stroke-width:0.5;" x1="1522.63" x2="1809.9425" y1="87.46" y2="87.46"/><text fill="#334155" font-family="sans-serif" font-size="12" lengthAdjust="spacing" textLength="277.3125" x="1527.63" y="102.5987">+handle(IntersectionController context) : void</text></g><!--class GreenState--><g id="elem_GreenState"><rect codeLine="115" fill="#ECFDF5" height="51.9688" id="GreenState" rx="6" ry="6" style="stroke:#10B981;stroke-width:0.5;" width="226.582" x="279" y="329.23"/><ellipse cx="349.8213" cy="344.23" fill="#ADD1B2" rx="10" ry="10" style="stroke:#181818;stroke-width:1.0;"/><path d="M351.6807,348.4644 Q351.2432,348.6831 350.7432,348.7925 Q350.2588,348.9175 349.7275,348.9175 Q347.8057,348.9175 346.79,347.6519 Q345.79,346.3863 345.79,343.9956 Q345.79,341.605 346.79,340.3394 Q347.8057,339.0738 349.7275,339.0738 Q350.2588,339.0738 350.7588,339.1988 Q351.2588,339.3081 351.6807,339.5425 L351.6807,341.6206 Q351.1963,341.1831 350.7432,340.98 Q350.29,340.7613 349.8057,340.7613 Q348.79,340.7613 348.2588,341.5894 Q347.7275,342.4019 347.7275,343.9956 Q347.7275,345.605 348.2588,346.4175 Q348.79,347.23 349.8057,347.23 Q350.29,347.23 350.7432,347.0269 Q351.1963,346.8238 351.6807,346.3706 L351.6807,348.4644 Z " fill="#000000"/><text fill="#334155" font-family="sans-serif" font-size="12" font-weight="bold" lengthAdjust="spacing" textLength="76.9395" x="368.8213" y="348.3843">GreenState</text><line style="stroke:#10B981;stroke-width:0.5;" x1="280" x2="504.582" y1="359.23" y2="359.23"/><text fill="#334155" font-family="sans-serif" font-size="12" lengthAdjust="spacing" textLength="214.582" x="285" y="374.3687">+handle(TrafficLight context) : void</text></g><!--class RedState--><g id="elem_RedState"><rect codeLine="119" fill="#ECFDF5" height="51.9688" id="RedState" rx="6" ry="6" style="stroke:#10B981;stroke-width:0.5;" width="226.582" x="551" y="329.23"/><ellipse cx="629.1309" cy="344.23" fill="#ADD1B2" rx="10" ry="10" style="stroke:#181818;stroke-width:1.0;"/><path d="M630.9902,348.4644 Q630.5527,348.6831 630.0527,348.7925 Q629.5684,348.9175 629.0371,348.9175 Q627.1152,348.9175 626.0996,347.6519 Q625.0996,346.3863 625.0996,343.9956 Q625.0996,341.605 626.0996,340.3394 Q627.1152,339.0738 629.0371,339.0738 Q629.5684,339.0738 630.0684,339.1988 Q630.5684,339.3081 630.9902,339.5425 L630.9902,341.6206 Q630.5059,341.1831 630.0527,340.98 Q629.5996,340.7613 629.1152,340.7613 Q628.0996,340.7613 627.5684,341.5894 Q627.0371,342.4019 627.0371,343.9956 Q627.0371,345.605 627.5684,346.4175 Q628.0996,347.23 629.1152,347.23 Q629.5996,347.23 630.0527,347.0269 Q630.5059,346.8238 630.9902,346.3706 L630.9902,348.4644 Z " fill="#000000"/><text fill="#334155" font-family="sans-serif" font-size="12" font-weight="bold" lengthAdjust="spacing" textLength="62.3203" x="648.1309" y="348.3843">RedState</text><line style="stroke:#10B981;stroke-width:0.5;" x1="552" x2="776.582" y1="359.23" y2="359.23"/><text fill="#334155" font-family="sans-serif" font-size="12" lengthAdjust="spacing" textLength="214.582" x="557" y="374.3687">+handle(TrafficLight context) : void</text></g><!--class SignalState--><g id="elem_SignalState"><rect codeLine="123" fill="#DBEAFE" height="51.9688" id="SignalState" rx="6" ry="6" style="stroke:#2563EB;stroke-width:0.5;" width="226.582" x="228" y="900.32"/><ellipse cx="298.0654" cy="915.32" fill="#B4A7E5" rx="10" ry="10" style="stroke:#181818;stroke-width:1.0;"/><path d="M295.1592,911.9919 L295.1592,910.3356 L300.7998,910.3356 L300.7998,911.9919 L298.9092,911.9919 L298.9092,918.1638 L300.7998,918.1638 L300.7998,919.82 L295.1592,919.82 L295.1592,918.1638 L297.0498,918.1638 L297.0498,911.9919 L295.1592,911.9919 Z " fill="#000000"/><text fill="#334155" font-family="sans-serif" font-size="12" font-style="italic" font-weight="bold" lengthAdjust="spacing" textLength="78.4512" x="317.0654" y="919.4743">SignalState</text><line style="stroke:#2563EB;stroke-width:0.5;" x1="229" x2="453.582" y1="930.32" y2="930.32"/><text fill="#334155" font-family="sans-serif" font-size="12" lengthAdjust="spacing" textLength="214.582" x="234" y="945.4587">+handle(TrafficLight context) : void</text></g><!--class YellowState--><g id="elem_YellowState"><rect codeLine="127" fill="#ECFDF5" height="51.9688" id="YellowState" rx="6" ry="6" style="stroke:#10B981;stroke-width:0.5;" width="226.582" x="7" y="329.23"/><ellipse cx="75.9229" cy="344.23" fill="#ADD1B2" rx="10" ry="10" style="stroke:#181818;stroke-width:1.0;"/><path d="M77.7822,348.4644 Q77.3447,348.6831 76.8447,348.7925 Q76.3604,348.9175 75.8291,348.9175 Q73.9072,348.9175 72.8916,347.6519 Q71.8916,346.3863 71.8916,343.9956 Q71.8916,341.605 72.8916,340.3394 Q73.9072,339.0738 75.8291,339.0738 Q76.3604,339.0738 76.8604,339.1988 Q77.3604,339.3081 77.7822,339.5425 L77.7822,341.6206 Q77.2979,341.1831 76.8447,340.98 Q76.3916,340.7613 75.9072,340.7613 Q74.8916,340.7613 74.3604,341.5894 Q73.8291,342.4019 73.8291,343.9956 Q73.8291,345.605 74.3604,346.4175 Q74.8916,347.23 75.9072,347.23 Q76.3916,347.23 76.8447,347.0269 Q77.2979,346.8238 77.7822,346.3706 L77.7822,348.4644 Z " fill="#000000"/><text fill="#334155" font-family="sans-serif" font-size="12" font-weight="bold" lengthAdjust="spacing" textLength="80.7363" x="94.9229" y="348.3843">YellowState</text><line style="stroke:#10B981;stroke-width:0.5;" x1="8" x2="232.582" y1="359.23" y2="359.23"/><text fill="#334155" font-family="sans-serif" font-size="12" lengthAdjust="spacing" textLength="214.582" x="13" y="374.3687">+handle(TrafficLight context) : void</text></g><!--reverse link IntersectionController to Direction--><g id="link_IntersectionController_Direction"><path codeLine="131" d="M1453.36,492.8 C1453.36,697.66 1453.36,1069.16 1453.36,1069.16 C1453.36,1069.16 1286.26,1069.16 1202.71,1069.16 " fill="none" id="IntersectionController-backto-Direction" style="stroke:#FB8C00;stroke-width:1.3;"/><polygon fill="none" points="1453.36,480.8,1449.36,486.8,1453.36,492.8,1457.36,486.8,1453.36,480.8" style="stroke:#FB8C00;stroke-width:1.3;"/><text fill="#475569" font-family="sans-serif" font-size="12" lengthAdjust="spacing" textLength="71.5723" x="1381.36" y="897.4487">trafficLights</text><text fill="#475569" font-family="sans-serif" font-size="12" lengthAdjust="spacing" textLength="6" x="1210.2774" y="1066.3672">*</text></g><!--reverse link IntersectionController to TrafficLight--><g id="link_IntersectionController_TrafficLight"><path codeLine="132" d="M1353.73,492.82 C1353.73,555.93 1353.73,607.16 1353.73,607.16 C1353.73,607.16 990.71,607.16 773.04,607.16 " fill="none" id="IntersectionController-backto-TrafficLight" style="stroke:#FB8C00;stroke-width:1.3;"/><polygon fill="none" points="1353.73,480.82,1349.73,486.82,1353.73,492.82,1357.73,486.82,1353.73,480.82" style="stroke:#FB8C00;stroke-width:1.3;"/><text fill="#475569" font-family="sans-serif" font-size="12" lengthAdjust="spacing" textLength="71.5723" x="1054.56" y="604.2987">trafficLights</text><text fill="#475569" font-family="sans-serif" font-size="12" lengthAdjust="spacing" textLength="6" x="780.9229" y="600.9738">*</text></g><!--reverse link IntersectionController to IntersectionState--><g id="link_IntersectionController_IntersectionState"><path codeLine="133" d="M1545.82,492.99 C1545.82,560.06 1545.82,624.67 1545.82,664.03 " fill="none" id="IntersectionController-backto-IntersectionState" style="stroke:#E53935;stroke-width:1.3;"/><polygon fill="#E53935" points="1545.82,480.99,1541.82,486.99,1545.82,492.99,1549.82,486.99,1545.82,480.99" style="stroke:#E53935;stroke-width:1.3;"/><text fill="#475569" font-family="sans-serif" font-size="12" lengthAdjust="spacing" textLength="75.5273" x="1469.82" y="569.6487">currentState</text></g><!--link IntersectionState to IntersectionController--><g id="link_IntersectionState_IntersectionController"><path codeLine="148" d="M1570.01,664.13 C1570.01,624.77 1570.01,553.99 1570.01,486.83 " fill="none" id="IntersectionState-to-IntersectionController" style="stroke:#90A4AE;stroke-width:1.3;stroke-dasharray:7.0,7.0;"/><polygon fill="#90A4AE" points="1570.01,480.83,1566.01,489.83,1570.01,485.83,1574.01,489.83,1570.01,480.83" style="stroke:#90A4AE;stroke-width:1.3;"/></g><!--reverse link Builder to TrafficObserver--><g id="link_Builder_TrafficObserver"><path codeLine="134" d="M830.31,172.1 C830.31,352.89 830.31,787.16 830.31,900.03 " fill="none" id="Builder-backto-TrafficObserver" style="stroke:#FB8C00;stroke-width:1.3;"/><polygon fill="none" points="830.31,160.1,826.31,166.1,830.31,172.1,834.31,166.1,830.31,160.1" style="stroke:#FB8C00;stroke-width:1.3;"/><text fill="#475569" font-family="sans-serif" font-size="12" lengthAdjust="spacing" textLength="59.1973" x="770.31" y="527.2087">observers</text><text fill="#475569" font-family="sans-serif" font-size="12" lengthAdjust="spacing" textLength="6" x="805.2342" y="889.4907">*</text></g><!--link Builder to IntersectionController--><g id="link_Builder_IntersectionController"><path codeLine="135" d="M883.05,160.24 C883.05,215.07 883.05,279.16 883.05,279.16 C883.05,279.16 1145.86,279.16 1315.97,279.16 " fill="none" id="Builder-to-IntersectionController" style="stroke:#90A4AE;stroke-width:1.3;stroke-dasharray:7.0,7.0;"/><polygon fill="#90A4AE" points="1321.97,279.16,1312.97,275.16,1316.97,279.16,1312.97,283.16,1321.97,279.16" style="stroke:#90A4AE;stroke-width:1.3;"/></g><!--reverse link TrafficControlSystem to IntersectionController--><g id="link_TrafficControlSystem_IntersectionController"><path codeLine="136" d="M1399.31,172.23 C1399.31,193.82 1399.31,205.87 1399.31,229.51 " fill="none" id="TrafficControlSystem-backto-IntersectionController" style="stroke:#FB8C00;stroke-width:1.3;"/><polygon fill="none" points="1399.31,160.23,1395.31,166.23,1399.31,172.23,1403.31,166.23,1399.31,160.23" style="stroke:#FB8C00;stroke-width:1.3;"/><text fill="#475569" font-family="sans-serif" font-size="12" lengthAdjust="spacing" textLength="77.4316" x="1321.31" y="192.0087">intersections</text><text fill="#475569" font-family="sans-serif" font-size="12" lengthAdjust="spacing" textLength="6" x="1389.3391" y="219.2099">*</text></g><!--reverse link TrafficLight to Direction--><g id="link_TrafficLight_Direction"><path codeLine="137" d="M785.18,773.16 C948.85,773.16 1167.38,773.16 1167.38,773.16 C1167.38,773.16 1167.38,938.4 1167.38,1021.98 " fill="none" id="TrafficLight-backto-Direction" style="stroke:#FB8C00;stroke-width:1.3;"/><polygon fill="none" points="773.18,773.16,779.18,777.16,785.18,773.16,779.18,769.16,773.18,773.16" style="stroke:#FB8C00;stroke-width:1.3;"/><text fill="#475569" font-family="sans-serif" font-size="12" lengthAdjust="spacing" textLength="52.8516" x="1041.69" y="770.2987">direction</text></g><!--reverse link TrafficLight to LightColor--><g id="link_TrafficLight_LightColor"><path codeLine="138" d="M624.76,842.65 C624.76,950.48 624.76,1069.16 624.76,1069.16 C624.76,1069.16 769.16,1069.16 848.12,1069.16 " fill="none" id="TrafficLight-backto-LightColor" style="stroke:#FB8C00;stroke-width:1.3;"/><polygon fill="none" points="624.76,830.65,620.76,836.65,624.76,842.65,628.76,836.65,624.76,830.65" style="stroke:#FB8C00;stroke-width:1.3;"/><text fill="#475569" font-family="sans-serif" font-size="12" lengthAdjust="spacing" textLength="75.0938" x="548.76" y="1058.7187">currentColor</text></g><!--reverse link TrafficLight to SignalState--><g id="link_TrafficLight_SignalState"><path codeLine="139" d="M568.04,842.8 C568.04,889.18 568.04,917.16 568.04,917.16 C568.04,917.16 511.57,917.16 455,917.16 " fill="none" id="TrafficLight-backto-SignalState" style="stroke:#E53935;stroke-width:1.3;"/><polygon fill="#E53935" points="568.04,830.8,564.04,836.8,568.04,842.8,572.04,836.8,568.04,830.8" style="stroke:#E53935;stroke-width:1.3;"/><text fill="#475569" font-family="sans-serif" font-size="12" lengthAdjust="spacing" textLength="75.5273" x="478.7" y="914.2987">currentState</text></g><!--link SignalState to TrafficLight--><g id="link_SignalState_TrafficLight"><path codeLine="155" d="M454.7,935.16 C485.88,935.16 511.31,935.16 511.31,935.16 C511.31,935.16 511.31,891.34 511.31,836.66 " fill="none" id="SignalState-to-TrafficLight" style="stroke:#90A4AE;stroke-width:1.3;stroke-dasharray:7.0,7.0;"/><polygon fill="#90A4AE" points="511.31,830.66,507.31,839.66,511.31,835.66,515.31,839.66,511.31,830.66" style="stroke:#90A4AE;stroke-width:1.3;"/></g><!--reverse link TrafficLight to TrafficObserver--><g id="link_TrafficLight_TrafficObserver"><path codeLine="140" d="M727.18,842.7 C727.18,869.22 727.18,882.17 727.18,899.92 " fill="none" id="TrafficLight-backto-TrafficObserver" style="stroke:#FB8C00;stroke-width:1.3;"/><polygon fill="none" points="727.18,830.7,723.18,836.7,727.18,842.7,731.18,836.7,727.18,830.7" style="stroke:#FB8C00;stroke-width:1.3;"/><text fill="#475569" font-family="sans-serif" font-size="12" lengthAdjust="spacing" textLength="59.1973" x="667.18" y="862.4487">observers</text><text fill="#475569" font-family="sans-serif" font-size="12" lengthAdjust="spacing" textLength="6" x="674.388" y="889.3512">*</text></g><!--link CentralMonitor to TrafficObserver--><g id="link_CentralMonitor_TrafficObserver"><path codeLine="141" d="M1033.29,716.58 C1033.29,761.92 1033.29,836.62 1033.29,882.04 " fill="none" id="CentralMonitor-to-TrafficObserver" style="stroke:#1E88E5;stroke-width:1.3;stroke-dasharray:7.0,7.0;"/><polygon fill="none" points="1033.29,900.04,1039.29,882.04,1027.29,882.04,1033.29,900.04" style="stroke:#1E88E5;stroke-width:1.3;"/></g><!--link CentralMonitor to Direction--><g id="link_CentralMonitor_Direction"><path codeLine="142" d="M1184.8,716.77 C1184.8,780.02 1184.8,935.22 1184.8,1015.83 " fill="none" id="CentralMonitor-to-Direction" style="stroke:#90A4AE;stroke-width:1.3;stroke-dasharray:7.0,7.0;"/><polygon fill="#90A4AE" points="1184.8,1021.83,1188.8,1012.83,1184.8,1016.83,1180.8,1012.83,1184.8,1021.83" style="stroke:#90A4AE;stroke-width:1.3;"/></g><!--link CentralMonitor to LightColor--><g id="link_CentralMonitor_LightColor"><path codeLine="143" d="M1132.52,716.77 C1132.52,789.39 1132.52,987.16 1132.52,987.16 C1132.52,987.16 914.95,987.16 914.95,987.16 C914.95,987.16 914.95,1002.32 914.95,1023.15 " fill="none" id="CentralMonitor-to-LightColor" style="stroke:#90A4AE;stroke-width:1.3;stroke-dasharray:7.0,7.0;"/><polygon fill="#90A4AE" points="914.95,1029.15,918.95,1020.15,914.95,1024.15,910.95,1020.15,914.95,1029.15" style="stroke:#90A4AE;stroke-width:1.3;"/></g><!--link TrafficObserver to Direction--><g id="link_TrafficObserver_Direction"><path codeLine="144" d="M1115.48,926.16 C1136.35,926.16 1149.95,926.16 1149.95,926.16 C1149.95,926.16 1149.95,974.31 1149.95,1015.98 " fill="none" id="TrafficObserver-to-Direction" style="stroke:#90A4AE;stroke-width:1.3;stroke-dasharray:7.0,7.0;"/><polygon fill="#90A4AE" points="1149.95,1021.98,1153.95,1012.98,1149.95,1016.98,1145.95,1012.98,1149.95,1021.98" style="stroke:#90A4AE;stroke-width:1.3;"/></g><!--link TrafficObserver to LightColor--><g id="link_TrafficObserver_LightColor"><path codeLine="145" d="M881.63,952.51 C881.63,973.87 881.63,998.38 881.63,1022.85 " fill="none" id="TrafficObserver-to-LightColor" style="stroke:#90A4AE;stroke-width:1.3;stroke-dasharray:7.0,7.0;"/><polygon fill="#90A4AE" points="881.63,1028.85,885.63,1019.85,881.63,1023.85,877.63,1019.85,881.63,1028.85" style="stroke:#90A4AE;stroke-width:1.3;"/></g><!--link EastWestGreenState to IntersectionState--><g id="link_EastWestGreenState_IntersectionState"><path codeLine="146" d="M2048.51,109.91 C2048.51,226.68 2048.51,690.16 2048.51,690.16 C2048.51,690.16 1937.46,690.16 1829.34,690.16 " fill="none" id="EastWestGreenState-to-IntersectionState" style="stroke:#1E88E5;stroke-width:1.3;stroke-dasharray:7.0,7.0;"/><polygon fill="none" points="1811.34,690.16,1829.34,696.16,1829.34,684.16,1811.34,690.16" style="stroke:#1E88E5;stroke-width:1.3;"/></g><!--link EastWestGreenState to IntersectionController--><g id="link_EastWestGreenState_IntersectionController"><path codeLine="147" d="M1952.07,109.5 C1952.07,177.51 1952.07,355.16 1952.07,355.16 C1952.07,355.16 1746.68,355.16 1600.53,355.16 " fill="none" id="EastWestGreenState-to-IntersectionController" style="stroke:#90A4AE;stroke-width:1.3;stroke-dasharray:7.0,7.0;"/><polygon fill="#90A4AE" points="1594.53,355.16,1603.53,359.16,1599.53,355.16,1603.53,351.16,1594.53,355.16" style="stroke:#90A4AE;stroke-width:1.3;"/></g><!--link NorthSouthGreenState to IntersectionState--><g id="link_NorthSouthGreenState_IntersectionState"><path codeLine="149" d="M1702.58,109.92 C1702.58,209.97 1702.58,546.45 1702.58,646.16 " fill="none" id="NorthSouthGreenState-to-IntersectionState" style="stroke:#1E88E5;stroke-width:1.3;stroke-dasharray:7.0,7.0;"/><polygon fill="none" points="1702.58,664.16,1708.58,646.16,1696.58,646.16,1702.58,664.16" style="stroke:#1E88E5;stroke-width:1.3;"/></g><!--link NorthSouthGreenState to IntersectionController--><g id="link_NorthSouthGreenState_IntersectionController"><path codeLine="150" d="M1557.92,109.5 C1557.92,137.6 1557.92,178.42 1557.92,223.69 " fill="none" id="NorthSouthGreenState-to-IntersectionController" style="stroke:#90A4AE;stroke-width:1.3;stroke-dasharray:7.0,7.0;"/><polygon fill="#90A4AE" points="1557.92,229.69,1561.92,220.69,1557.92,224.69,1553.92,220.69,1557.92,229.69" style="stroke:#90A4AE;stroke-width:1.3;"/></g><!--link GreenState to SignalState--><g id="link_GreenState_SignalState"><path codeLine="151" d="M337.24,381.62 C337.24,477.15 337.24,786.24 337.24,881.85 " fill="none" id="GreenState-to-SignalState" style="stroke:#1E88E5;stroke-width:1.3;stroke-dasharray:7.0,7.0;"/><polygon fill="none" points="337.24,899.85,343.24,881.85,331.24,881.85,337.24,899.85" style="stroke:#1E88E5;stroke-width:1.3;"/></g><!--link GreenState to TrafficLight--><g id="link_GreenState_TrafficLight"><path codeLine="152" d="M479.64,381.52 C479.64,418.02 479.64,480.72 479.64,544.07 " fill="none" id="GreenState-to-TrafficLight" style="stroke:#90A4AE;stroke-width:1.3;stroke-dasharray:7.0,7.0;"/><polygon fill="#90A4AE" points="479.64,550.07,483.64,541.07,479.64,545.07,475.64,541.07,479.64,550.07" style="stroke:#90A4AE;stroke-width:1.3;"/></g><!--link RedState to SignalState--><g id="link_RedState_SignalState"><path codeLine="153" d="M624.96,381.35 C624.96,403.32 624.96,431.16 624.96,431.16 C624.96,431.16 395.47,431.16 395.47,431.16 C395.47,431.16 395.47,779.67 395.47,882.03 " fill="none" id="RedState-to-SignalState" style="stroke:#1E88E5;stroke-width:1.3;stroke-dasharray:7.0,7.0;"/><polygon fill="none" points="395.47,900.03,401.47,882.03,389.47,882.03,395.47,900.03" style="stroke:#1E88E5;stroke-width:1.3;"/></g><!--link RedState to TrafficLight--><g id="link_RedState_TrafficLight"><path codeLine="154" d="M698.92,381.52 C698.92,418.02 698.92,480.72 698.92,544.07 " fill="none" id="RedState-to-TrafficLight" style="stroke:#90A4AE;stroke-width:1.3;stroke-dasharray:7.0,7.0;"/><polygon fill="#90A4AE" points="698.92,550.07,702.92,541.07,698.92,545.07,694.92,541.07,698.92,550.07" style="stroke:#90A4AE;stroke-width:1.3;"/></g><!--link YellowState to SignalState--><g id="link_YellowState_SignalState"><path codeLine="156" d="M233.83,355.16 C247.25,355.16 256.29,355.16 256.29,355.16 C256.29,355.16 256.29,769.57 256.29,881.9 " fill="none" id="YellowState-to-SignalState" style="stroke:#1E88E5;stroke-width:1.3;stroke-dasharray:7.0,7.0;"/><polygon fill="none" points="256.29,899.9,262.29,881.9,250.29,881.9,256.29,899.9" style="stroke:#1E88E5;stroke-width:1.3;"/></g><!--link YellowState to TrafficLight--><g id="link_YellowState_TrafficLight"><path codeLine="157" d="M117.5,381.5 C117.5,460.46 117.5,690.16 117.5,690.16 C117.5,690.16 302.45,690.16 447.35,690.16 " fill="none" id="YellowState-to-TrafficLight" style="stroke:#90A4AE;stroke-width:1.3;stroke-dasharray:7.0,7.0;"/><polygon fill="#90A4AE" points="453.35,690.16,444.35,686.16,448.35,690.16,444.35,694.16,453.35,690.16" style="stroke:#90A4AE;stroke-width:1.3;"/></g><!--SRC=[jLTRR-8w47xdLrZBItPFEOBIj80g92vXJwKkbHfMrMhL1vCOi1fiP3ljSlRqlw_jXCGEIKcFTbzGCfTlPZwF9mD_mcG76To2S8T1_xB1Cy4I1azhHcCIJcX46MZEHhFnR69Oy0qCwGicQx224KU69dLZ137GEJSKGGGv7md1y38Mw2QWnCV_8j0sJ4AqWd4aPfI8ETmYu4F2VSJmgjn6-tUwXZB218dz3W7An8OQ2a93nD4ENBXcgf0yAU5LkvWc-Da0G8SG-mY19Ot2L90Iqfvrhiv7KfOLP2YxtOkEwnQLIRRdKkmBn11LUHfEbzFpthJVU3LI6J56NnOR73mH97Fg_DqjAWt_YolNlUoN6Hm2Rt280Dhkn1viqNQ966yqacflYCo8eq1WIYRIWz4eaiTtVUqBAD1m29hUP3QTkQ3PxBJ7_Lv7yzC2E0G3W8dGBuB1rGe7jtYz4LpAly3TzHIp1FLiOMY7sZw86KEAOHb2cfivQ9asMZE4o3HcK8cbLKJ9MYlsA8heIvc6nOIenXp8OwCHWaHA_m9h96v2vsEMhvPyDj6rCaNHsczMY2ErBiN9AWJXuKaPckLg1uwIIfsZEW5NlyhfcU8mCHQG2QSWeZjR8klC1Q-7enp7E0hrsQLFDK_lVn1DbnonPrcC5DvYBgxJekzI-L2d-OB5vk3D7UMSn3hJG2cygYFDLpl1C3oWE0NKB6pHPwcUDIFbxPnpb2AcAd_F1TggPfTT4o51IJLbFzLPuU0LtCpznMW-yVAZjj0IVeqqCexASqjk1Fg1WbXG9aVUCmxKfV1iYQupoq6rD94l943En-f4D9jcM4ScPYLt4vwfTxi74f5z-iTDcaGvRjMYlCYzlXYIywnNXgUdJNR196XsxSnHaan2HRG4rozbWyR7QmAZVCGGzADILwV5MmKkZH6ZAT93ncP8Zah2SJPLSkPGahQJLm02zLkqcXzoTeoCImQ9R969mOsEPh6ZJJ8ojTwajlvDpCSIsj9dz1uVUGHKuDN-OCEhsoPfgwaCKTuanktOGamSNtv_oVhx8u1ipKrKHE9jNgbSS6RUTAh0l97RQq-AOFEx-yK_jiY_-reKUID_OKiUF2avX3CEzLIyp_UUDxT5txpRsxi7MtRlJNEA9lAK6Oo-K8A52b7EJxmBLTkKZO2IJzaPgEn46LS3hA2SLCLJRax7tcZcoU3dxcNN6_-1u4dH7kJY0V7aaYMteABm3IHXP7z-ZLL7RgD2tgdoweu_sHNrlJj6KiHSRQi-ZSNc3vIHXAWDRCtdIhXx5FuEi9nYSuozJMwz19FTxNVaMC4qRNrlpiQzIRlzs08VFdqm6dXWhyAr4QnCQe9yaY2Us-rtNGbotAS3w-FNE2o7LQ6p-pl8ltoPa_JfjqSN8-yiX7o3miVMi6hJAbsmZe9Mb3Im5wU6HOi5ObAUJOqtx8rnCh1s1jl7ujHip0ARrO5EKLeOrTAru_Lwdfin-z-mw5_YStGQ-PUxXh6n1XHJVHkxZhK1NZAXI-iz_lzNxbct1uylmpkSIoTopRIhVEl6FXNHt55FHB3-XMOp-oIgQVasfdaxJXgRC_ba3WNZDv5_0G00]--></g></svg>