<svg xmlns="http://www.w3.org/2000/svg" xmlns:xlink="http://www.w3.org/1999/xlink" contentStyleType="text/css" height="645px" preserveAspectRatio="none" style="width:2593px;height:645px;background:#FAFBFC;" version="1.1" viewBox="0 0 2593 645" width="2593px" zoomAndPan="magnify"><defs/><g><rect fill="#FAFBFC" height="645" style="stroke:none;stroke-width:1.0;" width="2593" x="0" y="0"/><!--class AbstractNode--><g id="elem_AbstractNode"><rect codeLine="23" fill="#EDE9FE" height="101.875" id="AbstractNode" rx="6" ry="6" style="stroke:#7C3AED;stroke-width:0.5;" width="152.1445" x="1055.2" y="536.59"/><ellipse cx="1082.4785" cy="551.59" fill="#A9DCDF" rx="10" ry="10" style="stroke:#181818;stroke-width:1.0;"/><path d="M1081.8848,547.8244 L1081.0098,551.6994 L1082.7754,551.6994 L1081.8848,547.8244 Z M1080.7441,546.1056 L1083.041,546.1056 L1085.6035,555.59 L1083.7285,555.59 L1083.1348,553.2463 L1080.6348,553.2463 L1080.0566,555.59 L1078.1816,555.59 L1080.7441,546.1056 Z " fill="#000000"/><text fill="#334155" font-family="sans-serif" font-size="12" font-style="italic" font-weight="bold" lengthAdjust="spacing" textLength="92.6367" x="1098.4293" y="555.7443">AbstractNode</text><line style="stroke:#7C3AED;stroke-width:0.5;" x1="1056.2" x2="1206.3445" y1="566.59" y2="566.59"/><text fill="#334155" font-family="sans-serif" font-size="12" lengthAdjust="spacing" textLength="91.5703" x="1061.2" y="581.7287">#name : String</text><text fill="#334155" font-family="sans-serif" font-size="12" lengthAdjust="spacing" textLength="109.2949" x="1061.2" y="595.6974">#createdAt : Date</text><line style="stroke:#7C3AED;stroke-width:0.5;" x1="1056.2" x2="1206.3445" y1="602.5275" y2="602.5275"/><text fill="#334155" font-family="sans-serif" font-size="12" lengthAdjust="spacing" textLength="122.0098" x="1061.2" y="617.6662">+getName() : String</text><text fill="#334155" font-family="sans-serif" font-size="12" lengthAdjust="spacing" textLength="140.1445" x="1061.2" y="631.6349">+getCreatedAt() : Date</text></g><!--class DirectoryNode--><g id="elem_DirectoryNode"><rect codeLine="30" fill="#ECFDF5" height="110.9766" id="DirectoryNode" rx="6" ry="6" style="stroke:#10B981;stroke-width:0.5;" width="249.4629" x="722.54" y="353.18"/><ellipse cx="794.2812" cy="372.7308" fill="#ADD1B2" rx="10" ry="10" style="stroke:#181818;stroke-width:1.0;"/><path d="M796.1406,376.9652 Q795.7031,377.1839 795.2031,377.2933 Q794.7187,377.4183 794.1875,377.4183 Q792.2656,377.4183 791.25,376.1527 Q790.25,374.887 790.25,372.4964 Q790.25,370.1058 791.25,368.8402 Q792.2656,367.5745 794.1875,367.5745 Q794.7187,367.5745 795.2187,367.6995 Q795.7187,367.8089 796.1406,368.0433 L796.1406,370.1214 Q795.6562,369.6839 795.2031,369.4808 Q794.75,369.262 794.2656,369.262 Q793.25,369.262 792.7187,370.0902 Q792.1875,370.9027 792.1875,372.4964 Q792.1875,374.1058 792.7187,374.9183 Q793.25,375.7308 794.2656,375.7308 Q794.75,375.7308 795.2031,375.5277 Q795.6562,375.3245 796.1406,374.8714 L796.1406,376.9652 Z " fill="#000000"/><text fill="#6D28D9" font-family="sans-serif" font-size="13" font-style="italic" lengthAdjust="spacing" textLength="85.4268" x="819.5581" y="370.2469">&#171;Composite&#187;</text><text fill="#334155" font-family="sans-serif" font-size="12" font-weight="bold" lengthAdjust="spacing" textLength="97.9805" x="813.2812" y="384.4515">DirectoryNode</text><line style="stroke:#10B981;stroke-width:0.5;" x1="723.54" x2="971.0029" y1="392.2816" y2="392.2816"/><text fill="#334155" font-family="sans-serif" font-size="12" lengthAdjust="spacing" textLength="231.1641" x="728.54" y="407.4202">-children : Map&lt;String,AbstractNode&gt;</text><line style="stroke:#10B981;stroke-width:0.5;" x1="723.54" x2="971.0029" y1="414.2503" y2="414.2503"/><text fill="#334155" font-family="sans-serif" font-size="12" lengthAdjust="spacing" textLength="225.8438" x="728.54" y="429.389">+addNode(AbstractNode node) : void</text><text fill="#334155" font-family="sans-serif" font-size="12" lengthAdjust="spacing" textLength="223.7637" x="728.54" y="443.3577">+getChildren() : List&lt;AbstractNode&gt;</text><text fill="#334155" font-family="sans-serif" font-size="12" lengthAdjust="spacing" textLength="237.4629" x="728.54" y="457.3265">+getNode(String name) : AbstractNode</text></g><!--class FileNode--><g id="elem_FileNode"><rect codeLine="37" fill="#ECFDF5" height="115.8438" id="FileNode" rx="6" ry="6" style="stroke:#10B981;stroke-width:0.5;" width="273.5566" x="403.49" y="350.75"/><ellipse cx="506.4793" cy="365.75" fill="#ADD1B2" rx="10" ry="10" style="stroke:#181818;stroke-width:1.0;"/><path d="M508.3386,369.9844 Q507.9011,370.2031 507.4011,370.3125 Q506.9168,370.4375 506.3855,370.4375 Q504.4636,370.4375 503.448,369.1719 Q502.448,367.9063 502.448,365.5156 Q502.448,363.125 503.448,361.8594 Q504.4636,360.5938 506.3855,360.5938 Q506.9168,360.5938 507.4168,360.7188 Q507.9168,360.8281 508.3386,361.0625 L508.3386,363.1406 Q507.8543,362.7031 507.4011,362.5 Q506.948,362.2813 506.4636,362.2813 Q505.448,362.2813 504.9168,363.1094 Q504.3855,363.9219 504.3855,365.5156 Q504.3855,367.125 504.9168,367.9375 Q505.448,368.75 506.4636,368.75 Q506.948,368.75 507.4011,368.5469 Q507.8543,368.3438 508.3386,367.8906 L508.3386,369.9844 Z " fill="#000000"/><text fill="#334155" font-family="sans-serif" font-size="12" font-weight="bold" lengthAdjust="spacing" textLength="59.5781" x="525.4793" y="369.9043">FileNode</text><line style="stroke:#10B981;stroke-width:0.5;" x1="404.49" x2="676.0466" y1="380.75" y2="380.75"/><text fill="#334155" font-family="sans-serif" font-size="12" lengthAdjust="spacing" textLength="97.7578" x="409.49" y="395.8887">-content : String</text><text fill="#334155" font-family="sans-serif" font-size="12" lengthAdjust="spacing" textLength="54.9141" x="409.49" y="409.8574">-size : int</text><line style="stroke:#10B981;stroke-width:0.5;" x1="404.49" x2="676.0466" y1="416.6875" y2="416.6875"/><text fill="#334155" font-family="sans-serif" font-size="12" lengthAdjust="spacing" textLength="261.5566" x="409.49" y="431.8262">+appendContent(String newContent) : void</text><text fill="#334155" font-family="sans-serif" font-size="12" lengthAdjust="spacing" textLength="141.9141" x="409.49" y="445.7949">+readContent() : String</text><text fill="#334155" font-family="sans-serif" font-size="12" lengthAdjust="spacing" textLength="91.0723" x="409.49" y="459.7637">+getSize() : int</text></g><!--class FileSystem--><g id="elem_FileSystem"><rect codeLine="45" fill="#ECFDF5" height="115.8438" id="FileSystem" rx="6" ry="6" style="stroke:#10B981;stroke-width:0.5;" width="730.541" x="7" y="7"/><ellipse cx="330.9961" cy="22" fill="#ADD1B2" rx="10" ry="10" style="stroke:#181818;stroke-width:1.0;"/><path d="M332.8555,26.2344 Q332.418,26.4531 331.918,26.5625 Q331.4336,26.6875 330.9023,26.6875 Q328.9805,26.6875 327.9648,25.4219 Q326.9648,24.1563 326.9648,21.7656 Q326.9648,19.375 327.9648,18.1094 Q328.9805,16.8438 330.9023,16.8438 Q331.4336,16.8438 331.9336,16.9688 Q332.4336,17.0781 332.8555,17.3125 L332.8555,19.3906 Q332.3711,18.9531 331.918,18.75 Q331.4648,18.5313 330.9805,18.5313 Q329.9648,18.5313 329.4336,19.3594 Q328.9023,20.1719 328.9023,21.7656 Q328.9023,23.375 329.4336,24.1875 Q329.9648,25 330.9805,25 Q331.4648,25 331.918,24.7969 Q332.3711,24.5938 332.8555,24.1406 L332.8555,26.2344 Z " fill="#000000"/><text fill="#334155" font-family="sans-serif" font-size="12" font-weight="bold" lengthAdjust="spacing" textLength="74.5488" x="349.9961" y="26.1543">FileSystem</text><line style="stroke:#10B981;stroke-width:0.5;" x1="8" x2="736.541" y1="37" y2="37"/><text fill="#334155" font-family="sans-serif" font-size="12" lengthAdjust="spacing" textLength="127.2129" x="13" y="52.1387">-root : DirectoryNode</text><line style="stroke:#10B981;stroke-width:0.5;" x1="8" x2="736.541" y1="58.9688" y2="58.9688"/><text fill="#334155" font-family="sans-serif" font-size="12" lengthAdjust="spacing" textLength="395.4902" x="13" y="74.1074">-traverse(String path, boolean createMissingDirs) : DirectoryNode</text><text fill="#334155" font-family="sans-serif" font-size="12" lengthAdjust="spacing" textLength="157.916" x="13" y="88.0762">+mkdir(String path) : void</text><text fill="#334155" font-family="sans-serif" font-size="12" lengthAdjust="spacing" textLength="278.0273" x="13" y="102.0449">+addFile(String filePath, String content) : void</text><text fill="#334155" font-family="sans-serif" font-size="12" lengthAdjust="spacing" textLength="718.541" x="13" y="116.0137">+searchNodes(String directoryPath, NodeSearchStrategy strategy, Map&lt;String,Object&gt; params) : List&lt;AbstractNode&gt;</text></g><!--class FileSystemDemo--><g id="elem_FileSystemDemo"><rect codeLine="53" fill="#ECFDF5" height="51.9688" id="FileSystemDemo" rx="6" ry="6" style="stroke:#10B981;stroke-width:0.5;" width="173.6133" x="1465.46" y="38.94"/><ellipse cx="1493.0576" cy="53.94" fill="#ADD1B2" rx="10" ry="10" style="stroke:#181818;stroke-width:1.0;"/><path d="M1494.9169,58.1744 Q1494.4794,58.3931 1493.9794,58.5025 Q1493.4951,58.6275 1492.9638,58.6275 Q1491.0419,58.6275 1490.0263,57.3619 Q1489.0263,56.0963 1489.0263,53.7056 Q1489.0263,51.315 1490.0263,50.0494 Q1491.0419,48.7838 1492.9638,48.7838 Q1493.4951,48.7838 1493.9951,48.9088 Q1494.4951,49.0181 1494.9169,49.2525 L1494.9169,51.3306 Q1494.4326,50.8931 1493.9794,50.69 Q1493.5263,50.4713 1493.0419,50.4713 Q1492.0263,50.4713 1491.4951,51.2994 Q1490.9638,52.1119 1490.9638,53.7056 Q1490.9638,55.315 1491.4951,56.1275 Q1492.0263,56.94 1493.0419,56.94 Q1493.5263,56.94 1493.9794,56.7369 Q1494.4326,56.5338 1494.9169,56.0806 L1494.9169,58.1744 Z " fill="#000000"/><text fill="#334155" font-family="sans-serif" font-size="12" font-weight="bold" lengthAdjust="spacing" textLength="113.3965" x="1509.0792" y="58.0943">FileSystemDemo</text><line style="stroke:#10B981;stroke-width:0.5;" x1="1466.46" x2="1638.0733" y1="68.94" y2="68.94"/><text fill="#334155" font-family="sans-serif" font-size="12" lengthAdjust="spacing" text-decoration="underline" textLength="161.6133" x="1471.46" y="84.0787">+main(String[] args) : void</text></g><!--class FileSizeFilter--><g id="elem_FileSizeFilter"><rect codeLine="57" fill="#ECFDF5" height="51.9688" id="FileSizeFilter" rx="6" ry="6" style="stroke:#10B981;stroke-width:0.5;" width="420.3281" x="1199.11" y="210.81"/><ellipse cx="1360.945" cy="225.81" fill="#ADD1B2" rx="10" ry="10" style="stroke:#181818;stroke-width:1.0;"/><path d="M1362.8043,230.0444 Q1362.3668,230.2631 1361.8668,230.3725 Q1361.3825,230.4975 1360.8512,230.4975 Q1358.9293,230.4975 1357.9137,229.2319 Q1356.9137,227.9663 1356.9137,225.5756 Q1356.9137,223.185 1357.9137,221.9194 Q1358.9293,220.6538 1360.8512,220.6538 Q1361.3825,220.6538 1361.8825,220.7788 Q1362.3825,220.8881 1362.8043,221.1225 L1362.8043,223.2006 Q1362.32,222.7631 1361.8668,222.56 Q1361.4137,222.3413 1360.9293,222.3413 Q1359.9137,222.3413 1359.3825,223.1694 Q1358.8512,223.9819 1358.8512,225.5756 Q1358.8512,227.185 1359.3825,227.9975 Q1359.9137,228.81 1360.9293,228.81 Q1361.4137,228.81 1361.8668,228.6069 Q1362.32,228.4038 1362.8043,227.9506 L1362.8043,230.0444 Z " fill="#000000"/><text fill="#334155" font-family="sans-serif" font-size="12" font-weight="bold" lengthAdjust="spacing" textLength="88.6582" x="1379.945" y="229.9643">FileSizeFilter</text><line style="stroke:#10B981;stroke-width:0.5;" x1="1200.11" x2="1618.4381" y1="240.81" y2="240.81"/><text fill="#334155" font-family="sans-serif" font-size="12" lengthAdjust="spacing" textLength="408.3281" x="1205.11" y="255.9487">+apply(AbstractNode node, Map&lt;String,Object&gt; params) : boolean</text></g><!--class FilenameFilter--><g id="elem_FilenameFilter"><rect codeLine="61" fill="#ECFDF5" height="51.9688" id="FilenameFilter" rx="6" ry="6" style="stroke:#10B981;stroke-width:0.5;" width="420.3281" x="1664.11" y="210.81"/><ellipse cx="1821.2428" cy="225.81" fill="#ADD1B2" rx="10" ry="10" style="stroke:#181818;stroke-width:1.0;"/><path d="M1823.1022,230.0444 Q1822.6647,230.2631 1822.1647,230.3725 Q1821.6803,230.4975 1821.1491,230.4975 Q1819.2272,230.4975 1818.2116,229.2319 Q1817.2116,227.9663 1817.2116,225.5756 Q1817.2116,223.185 1818.2116,221.9194 Q1819.2272,220.6538 1821.1491,220.6538 Q1821.6803,220.6538 1822.1803,220.7788 Q1822.6803,220.8881 1823.1022,221.1225 L1823.1022,223.2006 Q1822.6178,222.7631 1822.1647,222.56 Q1821.7116,222.3413 1821.2272,222.3413 Q1820.2116,222.3413 1819.6803,223.1694 Q1819.1491,223.9819 1819.1491,225.5756 Q1819.1491,227.185 1819.6803,227.9975 Q1820.2116,228.81 1821.2272,228.81 Q1821.7116,228.81 1822.1647,228.6069 Q1822.6178,228.4038 1823.1022,227.9506 L1823.1022,230.0444 Z " fill="#000000"/><text fill="#334155" font-family="sans-serif" font-size="12" font-weight="bold" lengthAdjust="spacing" textLength="98.0625" x="1840.2428" y="229.9643">FilenameFilter</text><line style="stroke:#10B981;stroke-width:0.5;" x1="1665.11" x2="2083.4381" y1="240.81" y2="240.81"/><text fill="#334155" font-family="sans-serif" font-size="12" lengthAdjust="spacing" textLength="408.3281" x="1670.11" y="255.9487">+apply(AbstractNode node, Map&lt;String,Object&gt; params) : boolean</text></g><!--class NodeFilter--><g id="elem_NodeFilter"><rect codeLine="65" fill="#DBEAFE" height="51.9688" id="NodeFilter" rx="6" ry="6" style="stroke:#2563EB;stroke-width:0.5;" width="420.3281" x="1362.11" y="382.69"/><ellipse cx="1532.6579" cy="397.69" fill="#B4A7E5" rx="10" ry="10" style="stroke:#181818;stroke-width:1.0;"/><path d="M1529.7516,394.3619 L1529.7516,392.7056 L1535.3922,392.7056 L1535.3922,394.3619 L1533.5016,394.3619 L1533.5016,400.5338 L1535.3922,400.5338 L1535.3922,402.19 L1529.7516,402.19 L1529.7516,400.5338 L1531.6422,400.5338 L1531.6422,394.3619 L1529.7516,394.3619 Z " fill="#000000"/><text fill="#334155" font-family="sans-serif" font-size="12" font-style="italic" font-weight="bold" lengthAdjust="spacing" textLength="71.2324" x="1551.6579" y="401.8443">NodeFilter</text><line style="stroke:#2563EB;stroke-width:0.5;" x1="1363.11" x2="1781.4381" y1="412.69" y2="412.69"/><text fill="#334155" font-family="sans-serif" font-size="12" lengthAdjust="spacing" textLength="408.3281" x="1368.11" y="427.8287">+apply(AbstractNode node, Map&lt;String,Object&gt; params) : boolean</text></g><!--class NodeFilterChain--><g id="elem_NodeFilterChain"><rect codeLine="69" fill="#ECFDF5" height="87.9063" id="NodeFilterChain" rx="6" ry="6" style="stroke:#10B981;stroke-width:0.5;" width="457.1719" x="2129.68" y="192.84"/><ellipse cx="2299.598" cy="207.84" fill="#ADD1B2" rx="10" ry="10" style="stroke:#181818;stroke-width:1.0;"/><path d="M2301.4573,212.0744 Q2301.0198,212.2931 2300.5198,212.4025 Q2300.0355,212.5275 2299.5042,212.5275 Q2297.5823,212.5275 2296.5667,211.2619 Q2295.5667,209.9963 2295.5667,207.6056 Q2295.5667,205.215 2296.5667,203.9494 Q2297.5823,202.6838 2299.5042,202.6838 Q2300.0355,202.6838 2300.5355,202.8088 Q2301.0355,202.9181 2301.4573,203.1525 L2301.4573,205.2306 Q2300.973,204.7931 2300.5198,204.59 Q2300.0667,204.3713 2299.5823,204.3713 Q2298.5667,204.3713 2298.0355,205.1994 Q2297.5042,206.0119 2297.5042,207.6056 Q2297.5042,209.215 2298.0355,210.0275 Q2298.5667,210.84 2299.5823,210.84 Q2300.0667,210.84 2300.5198,210.6369 Q2300.973,210.4338 2301.4573,209.9806 L2301.4573,212.0744 Z " fill="#000000"/><text fill="#334155" font-family="sans-serif" font-size="12" font-weight="bold" lengthAdjust="spacing" textLength="109.3359" x="2318.598" y="211.9943">NodeFilterChain</text><line style="stroke:#10B981;stroke-width:0.5;" x1="2130.68" x2="2585.8519" y1="222.84" y2="222.84"/><text fill="#334155" font-family="sans-serif" font-size="12" lengthAdjust="spacing" textLength="153.1641" x="2135.68" y="237.9787">-filters : List&lt;NodeFilter&gt;</text><line style="stroke:#10B981;stroke-width:0.5;" x1="2130.68" x2="2585.8519" y1="244.8088" y2="244.8088"/><text fill="#334155" font-family="sans-serif" font-size="12" lengthAdjust="spacing" textLength="203.3027" x="2135.68" y="259.9474">+addFilter(NodeFilter filter) : void</text><text fill="#334155" font-family="sans-serif" font-size="12" lengthAdjust="spacing" textLength="445.1719" x="2135.68" y="273.9162">+applyFilters(AbstractNode node, Map&lt;String,Object&gt; params) : boolean</text></g><!--class FilenameAndSizeSearchStrategy--><g id="elem_FilenameAndSizeSearchStrategy"><rect codeLine="75" fill="#ECFDF5" height="97.0078" id="FilenameAndSizeSearchStrategy" rx="6" ry="6" style="stroke:#10B981;stroke-width:0.5;" width="617.6191" x="802.46" y="16.42"/><ellipse cx="996.6299" cy="35.9708" fill="#ADD1B2" rx="10" ry="10" style="stroke:#181818;stroke-width:1.0;"/><path d="M998.4893,40.2052 Q998.0518,40.4239 997.5518,40.5333 Q997.0674,40.6583 996.5362,40.6583 Q994.6143,40.6583 993.5987,39.3927 Q992.5987,38.127 992.5987,35.7364 Q992.5987,33.3458 993.5987,32.0802 Q994.6143,30.8145 996.5362,30.8145 Q997.0674,30.8145 997.5674,30.9395 Q998.0674,31.0489 998.4893,31.2833 L998.4893,33.3614 Q998.0049,32.9239 997.5518,32.7208 Q997.0987,32.502 996.6143,32.502 Q995.5987,32.502 995.0674,33.3302 Q994.5362,34.1427 994.5362,35.7364 Q994.5362,37.3458 995.0674,38.1583 Q995.5987,38.9708 996.6143,38.9708 Q997.0987,38.9708 997.5518,38.7677 Q998.0049,38.5645 998.4893,38.1114 L998.4893,40.2052 Z " fill="#000000"/><text fill="#6D28D9" font-family="sans-serif" font-size="13" font-style="italic" lengthAdjust="spacing" textLength="67.8501" x="1092.3445" y="33.4869">&#171;Adapter&#187;</text><text fill="#334155" font-family="sans-serif" font-size="12" font-weight="bold" lengthAdjust="spacing" textLength="221.2793" x="1015.6299" y="47.6915">FilenameAndSizeSearchStrategy</text><line style="stroke:#10B981;stroke-width:0.5;" x1="803.46" x2="1419.0791" y1="55.5216" y2="55.5216"/><text fill="#334155" font-family="sans-serif" font-size="12" lengthAdjust="spacing" textLength="174.3809" x="808.46" y="70.6602">-filterChain : NodeFilterChain</text><line style="stroke:#10B981;stroke-width:0.5;" x1="803.46" x2="1419.0791" y1="77.4903" y2="77.4903"/><text fill="#334155" font-family="sans-serif" font-size="12" lengthAdjust="spacing" textLength="519.4277" x="808.46" y="92.629">+search(DirectoryNode directory, Map&lt;String,Object&gt; params) : List&lt;AbstractNode&gt;</text><text fill="#334155" font-family="sans-serif" font-size="12" lengthAdjust="spacing" textLength="605.6191" x="808.46" y="106.5977">-searchRecursive(DirectoryNode dir, Map&lt;String,Object&gt; params, List&lt;AbstractNode&gt; result) : void</text></g><!--class NodeSearchStrategy--><g id="elem_NodeSearchStrategy"><rect codeLine="81" fill="#DBEAFE" height="61.0703" id="NodeSearchStrategy" rx="6" ry="6" style="stroke:#2563EB;stroke-width:0.5;" width="531.4277" x="440.56" y="206.26"/><ellipse cx="632.1987" cy="225.8108" fill="#B4A7E5" rx="10" ry="10" style="stroke:#181818;stroke-width:1.0;"/><path d="M629.2924,222.4827 L629.2924,220.8264 L634.933,220.8264 L634.933,222.4827 L633.0424,222.4827 L633.0424,228.6545 L634.933,228.6545 L634.933,230.3108 L629.2924,230.3108 L629.2924,228.6545 L631.183,228.6545 L631.183,222.4827 L629.2924,222.4827 Z " fill="#000000"/><text fill="#6D28D9" font-family="sans-serif" font-size="13" font-style="italic" lengthAdjust="spacing" textLength="71.7476" x="685.4001" y="223.3269">&#171;Strategy&#187;</text><text fill="#334155" font-family="sans-serif" font-size="12" font-style="italic" font-weight="bold" lengthAdjust="spacing" textLength="140.1504" x="651.1987" y="237.5315">NodeSearchStrategy</text><line style="stroke:#2563EB;stroke-width:0.5;" x1="441.56" x2="970.9877" y1="245.3616" y2="245.3616"/><text fill="#334155" font-family="sans-serif" font-size="12" lengthAdjust="spacing" textLength="519.4277" x="446.56" y="260.5002">+search(DirectoryNode directory, Map&lt;String,Object&gt; params) : List&lt;AbstractNode&gt;</text></g><!--link DirectoryNode to AbstractNode--><g id="link_DirectoryNode_AbstractNode"><path codeLine="85" d="M972.21,449.47 C1029.11,449.47 1083.98,449.47 1083.98,449.47 C1083.98,449.47 1083.98,478.87 1083.98,518.12 " fill="none" id="DirectoryNode-to-AbstractNode" style="stroke:#1E88E5;stroke-width:1.3;"/><polygon fill="none" points="1083.98,536.12,1089.98,518.12,1077.98,518.12,1083.98,536.12" style="stroke:#1E88E5;stroke-width:1.3;"/></g><!--link FileNode to AbstractNode--><g id="link_FileNode_AbstractNode"><path codeLine="86" d="M540.27,466.72 C540.27,518.93 540.27,587.47 540.27,587.47 C540.27,587.47 877.15,587.47 1036.92,587.47 " fill="none" id="FileNode-to-AbstractNode" style="stroke:#1E88E5;stroke-width:1.3;"/><polygon fill="none" points="1054.92,587.47,1036.92,581.47,1036.92,593.47,1054.92,587.47" style="stroke:#1E88E5;stroke-width:1.3;"/></g><!--reverse link FileSystem to DirectoryNode--><g id="link_FileSystem_DirectoryNode"><path codeLine="87" d="M749.72,119.47 C887.58,119.47 999.73,119.47 999.73,119.47 C999.73,119.47 999.73,363.47 999.73,363.47 C999.73,363.47 988.66,363.47 972.48,363.47 " fill="none" id="FileSystem-backto-DirectoryNode" style="stroke:#E53935;stroke-width:1.3;"/><polygon fill="#E53935" points="737.72,119.47,743.72,123.47,749.72,119.47,743.72,115.47,737.72,119.47" style="stroke:#E53935;stroke-width:1.3;"/><text fill="#475569" font-family="sans-serif" font-size="12" lengthAdjust="spacing" textLength="24.3223" x="974.73" y="136.2287">root</text></g><!--link FileSystem to AbstractNode--><g id="link_FileSystem_AbstractNode"><path codeLine="88" d="M738.04,116.47 C936.44,116.47 1141.54,116.47 1141.54,116.47 C1141.54,116.47 1141.54,408.13 1141.54,530.22 " fill="none" id="FileSystem-to-AbstractNode" style="stroke:#90A4AE;stroke-width:1.3;stroke-dasharray:7.0,7.0;"/><polygon fill="#90A4AE" points="1141.54,536.22,1145.54,527.22,1141.54,531.22,1137.54,527.22,1141.54,536.22" style="stroke:#90A4AE;stroke-width:1.3;"/></g><!--link FileSystem to NodeSearchStrategy--><g id="link_FileSystem_NodeSearchStrategy"><path codeLine="89" d="M589.05,123.11 C589.05,150.96 589.05,177.17 589.05,200.18 " fill="none" id="FileSystem-to-NodeSearchStrategy" style="stroke:#90A4AE;stroke-width:1.3;stroke-dasharray:7.0,7.0;"/><polygon fill="#90A4AE" points="589.05,206.18,593.05,197.18,589.05,201.18,585.05,197.18,589.05,206.18" style="stroke:#90A4AE;stroke-width:1.3;"/></g><!--link FileSizeFilter to NodeFilter--><g id="link_FileSizeFilter_NodeFilter"><path codeLine="90" d="M1490.77,263.28 C1490.77,295.67 1490.77,332.17 1490.77,364.45 " fill="none" id="FileSizeFilter-to-NodeFilter" style="stroke:#1E88E5;stroke-width:1.3;stroke-dasharray:7.0,7.0;"/><polygon fill="none" points="1490.77,382.45,1496.77,364.45,1484.77,364.45,1490.77,382.45" style="stroke:#1E88E5;stroke-width:1.3;"/></g><!--link FileSizeFilter to AbstractNode--><g id="link_FileSizeFilter_AbstractNode"><path codeLine="91" d="M1201.17,263.16 C1201.17,321.07 1201.17,454.25 1201.17,530.11 " fill="none" id="FileSizeFilter-to-AbstractNode" style="stroke:#90A4AE;stroke-width:1.3;stroke-dasharray:7.0,7.0;"/><polygon fill="#90A4AE" points="1201.17,536.11,1205.17,527.11,1201.17,531.11,1197.17,527.11,1201.17,536.11" style="stroke:#90A4AE;stroke-width:1.3;"/></g><!--link FilenameFilter to NodeFilter--><g id="link_FilenameFilter_NodeFilter"><path codeLine="92" d="M1703.55,263.28 C1703.55,295.67 1703.55,332.17 1703.55,364.45 " fill="none" id="FilenameFilter-to-NodeFilter" style="stroke:#1E88E5;stroke-width:1.3;stroke-dasharray:7.0,7.0;"/><polygon fill="none" points="1703.55,382.45,1709.55,364.45,1697.55,364.45,1703.55,382.45" style="stroke:#1E88E5;stroke-width:1.3;"/></g><!--link FilenameFilter to AbstractNode--><g id="link_FilenameFilter_AbstractNode"><path codeLine="93" d="M1933.43,263.16 C1933.43,344.71 1933.43,587.47 1933.43,587.47 C1933.43,587.47 1414.33,587.47 1213.82,587.47 " fill="none" id="FilenameFilter-to-AbstractNode" style="stroke:#90A4AE;stroke-width:1.3;stroke-dasharray:7.0,7.0;"/><polygon fill="#90A4AE" points="1207.82,587.47,1216.82,591.47,1212.82,587.47,1216.82,583.47,1207.82,587.47" style="stroke:#90A4AE;stroke-width:1.3;"/></g><!--link NodeFilter to AbstractNode--><g id="link_NodeFilter_AbstractNode"><path codeLine="94" d="M1361.72,408.47 C1279.82,408.47 1205.28,408.47 1205.28,408.47 C1205.28,408.47 1205.28,477.31 1205.28,530.22 " fill="none" id="NodeFilter-to-AbstractNode" style="stroke:#90A4AE;stroke-width:1.3;stroke-dasharray:7.0,7.0;"/><polygon fill="#90A4AE" points="1205.28,536.22,1209.28,527.22,1205.28,531.22,1201.28,527.22,1205.28,536.22" style="stroke:#90A4AE;stroke-width:1.3;"/></g><!--reverse link NodeFilterChain to NodeFilter--><g id="link_NodeFilterChain_NodeFilter"><path codeLine="95" d="M2117.6,276.47 C1942.58,276.47 1742.99,276.47 1742.99,276.47 C1742.99,276.47 1742.99,343.66 1742.99,382.24 " fill="none" id="NodeFilterChain-backto-NodeFilter" style="stroke:#FB8C00;stroke-width:1.3;"/><polygon fill="none" points="2129.6,276.47,2123.6,272.47,2117.6,276.47,2123.6,280.47,2129.6,276.47" style="stroke:#FB8C00;stroke-width:1.3;"/><text fill="#475569" font-family="sans-serif" font-size="12" lengthAdjust="spacing" textLength="34.166" x="1848.41" y="288.6087">filters</text><text fill="#475569" font-family="sans-serif" font-size="12" lengthAdjust="spacing" textLength="6" x="1782.0637" y="371.6577">*</text></g><!--link NodeFilterChain to AbstractNode--><g id="link_NodeFilterChain_AbstractNode"><path codeLine="96" d="M2129.38,271.47 C1792.65,271.47 1203.22,271.47 1203.22,271.47 C1203.22,271.47 1203.22,440.95 1203.22,530.4 " fill="none" id="NodeFilterChain-to-AbstractNode" style="stroke:#90A4AE;stroke-width:1.3;stroke-dasharray:7.0,7.0;"/><polygon fill="#90A4AE" points="1203.22,536.4,1207.22,527.4,1203.22,531.4,1199.22,527.4,1203.22,536.4" style="stroke:#90A4AE;stroke-width:1.3;"/></g><!--link FilenameAndSizeSearchStrategy to NodeSearchStrategy--><g id="link_FilenameAndSizeSearchStrategy_NodeSearchStrategy"><path codeLine="97" d="M887.22,113.72 C887.22,143.29 887.22,162.13 887.22,187.77 " fill="none" id="FilenameAndSizeSearchStrategy-to-NodeSearchStrategy" style="stroke:#1E88E5;stroke-width:1.3;stroke-dasharray:7.0,7.0;"/><polygon fill="none" points="887.22,205.77,893.22,187.77,881.22,187.77,887.22,205.77" style="stroke:#1E88E5;stroke-width:1.3;"/></g><!--reverse link FilenameAndSizeSearchStrategy to NodeFilterChain--><g id="link_FilenameAndSizeSearchStrategy_NodeFilterChain"><path codeLine="98" d="M1309.59,125.88 C1309.59,164.35 1309.59,199.47 1309.59,199.47 C1309.59,199.47 1820.87,199.47 2129.43,199.47 " fill="none" id="FilenameAndSizeSearchStrategy-backto-NodeFilterChain" style="stroke:#E53935;stroke-width:1.3;"/><polygon fill="#E53935" points="1309.59,113.88,1305.59,119.88,1309.59,125.88,1313.59,119.88,1309.59,113.88" style="stroke:#E53935;stroke-width:1.3;"/><text fill="#475569" font-family="sans-serif" font-size="12" lengthAdjust="spacing" textLength="62.1914" x="1613.72" y="196.6087">filterChain</text></g><!--link FilenameAndSizeSearchStrategy to AbstractNode--><g id="link_FilenameAndSizeSearchStrategy_AbstractNode"><path codeLine="99" d="M1170.32,113.62 C1170.32,212.44 1170.32,429.69 1170.32,530.47 " fill="none" id="FilenameAndSizeSearchStrategy-to-AbstractNode" style="stroke:#90A4AE;stroke-width:1.3;stroke-dasharray:7.0,7.0;"/><polygon fill="#90A4AE" points="1170.32,536.47,1174.32,527.47,1170.32,531.47,1166.32,527.47,1170.32,536.47" style="stroke:#90A4AE;stroke-width:1.3;"/></g><!--link FilenameAndSizeSearchStrategy to DirectoryNode--><g id="link_FilenameAndSizeSearchStrategy_DirectoryNode"><path codeLine="100" d="M1027.47,113.65 C1027.47,200.37 1027.47,372.47 1027.47,372.47 C1027.47,372.47 1009.17,372.47 978.42,372.47 " fill="none" id="FilenameAndSizeSearchStrategy-to-DirectoryNode" style="stroke:#90A4AE;stroke-width:1.3;stroke-dasharray:7.0,7.0;"/><polygon fill="#90A4AE" points="972.42,372.47,981.42,376.47,977.42,372.47,981.42,368.47,972.42,372.47" style="stroke:#90A4AE;stroke-width:1.3;"/></g><!--link NodeSearchStrategy to AbstractNode--><g id="link_NodeSearchStrategy_AbstractNode"><path codeLine="101" d="M972.3,236.47 C1049.18,236.47 1112.76,236.47 1112.76,236.47 C1112.76,236.47 1112.76,432.6 1112.76,530.11 " fill="none" id="NodeSearchStrategy-to-AbstractNode" style="stroke:#90A4AE;stroke-width:1.3;stroke-dasharray:7.0,7.0;"/><polygon fill="#90A4AE" points="1112.76,536.11,1116.76,527.11,1112.76,531.11,1108.76,527.11,1112.76,536.11" style="stroke:#90A4AE;stroke-width:1.3;"/></g><!--link NodeSearchStrategy to DirectoryNode--><g id="link_NodeSearchStrategy_DirectoryNode"><path codeLine="102" d="M847.26,267.53 C847.26,291.18 847.26,318.52 847.26,346.85 " fill="none" id="NodeSearchStrategy-to-DirectoryNode" style="stroke:#90A4AE;stroke-width:1.3;stroke-dasharray:7.0,7.0;"/><polygon fill="#90A4AE" points="847.26,352.85,851.26,343.85,847.26,347.85,843.26,343.85,847.26,352.85" style="stroke:#90A4AE;stroke-width:1.3;"/></g><!--SRC=[jLPBR-984BxpArh39JE15Oyu0OIG3BQbaMPcLylUHZaqTe5xiDrMToSHCvF_ljNjHzfWyj1cJzXLNrLzzJHopxAS2fgIA6TaUjsHjM13m_rEyBiiMl642z8Dt60Ph2o4Z6d47rYs8rkQIB0qfPd8G93Xo5A42PNILKgmpPs2po7Frkmda845YM1Bxn8Ly4nzeocGDSta6WJRjcEC_N1iAHEMWJhaGBXGCRSK6Oz0Gawk79igpVPQU3Cufab-TGWn8TGX0RBXILGAoe8CWk7Do4LPdP2b78-lXevph2pOZb2yLY20QvwMqRKtcdZJpgD5nHM2F_mJit2V0N8Q_Z4-LbhsLpUESprj0rI1OnO1WJHN1v92kW4XEnswaKhGK9Lfk-NhDomNwVgUFmryqktUhCQkxvcYT4ccEpF390IstqX20LH1v2eKU_Y4mako0zF3YuysreXN5TpeZC5ZfrCGy9Y0K75nC0pcynLFSowPWiK2-Qm2Bt2Gpt2md4w6Xa-VX35B8W4P-lfAytaHgsTdiZ2HQHJfbuj6ZdekD8jxpgAQN-dGqFl2f9gVEjFPQMT5D5CJZRQ1Jqa5B86oekqPO9CWKtQX-aJghiq8orJ1Fiz1xvL1rc7XePGqSi3wriZJykjnC6Bjki5nVP0AqdCi1UUcmNQ7Z08pliTXgekHKnNtS6Tu0ZGhX-Chan9rQ2m_jZYv9Ea-OiBsqCW8UwS9LlejFlzbefI2iAKA4gW8Onr0LdPH5ROmrhgrGQ4UIUuEH9OFFNkM_jpyGBC5CNibpqn5IoKzI7bxDI_9BwceOk4ZIIdBIdxVRmaLErbdqNI9RSDVF1tdNEA898VJyNuXbR9FpM1wdl_dO3Xz8BOq1DE6AfYtz5rpSaREzTXVlczcJu5MCLRztA1l3KHMRNwoMbYpYAyN5l72fZcpcdIXbk_N5JUBz2GSZUryxaOqrnGNpsTL93uxBeMrC1VD4rolpDitmbmnu_Dl2E-4PFTmwlmPjxqMftZR97xzxHLf3j99OQf7NPdswNhll95JqrV_UtVeJoQ-Szl_lMX-8-fFmmkOyZH_GfZlZATZX1rzAsVcGDjWn4u7xfNhzo8gOuXk- -STjs5FozavEaGrwThgzy8QhHRuouIiq_CQzqtuy-wjVNq3jbWPZXR1Sh8Q3B3o7pvziA_Mh3eP9rQlphXzhSyMeAKjvxqqXkQOuSm-32_J-O_Pd9Wt_mYqBF2h6lNMGFy2]--></g></svg>